<svg aria-hidden="true" focusable="false" xmlns="http://www.w3.org/2000/svg" viewBox="0 0 500 500">
  <path d="M500,45.74a45.7,45.7,0,0,0-85.58-22.06L220.08,373.77,80.54,199.16h0a21.79,21.79,0,0,0-1.87-2.09c-.65-.68-.76-.89-1.19-1.32l-1.58-1.44-1.72-1.62-.33-.18a40.92,40.92,0,0,0-8.84-5.6,42.67,42.67,0,0,0-10.41-3.6h0c-.8-.21-1.66-.28-2.45-.43l-2-.32H41.05l-1.9.25-2.52.36-2.05.5-2.26.58-2.12.68-2.05.79-2.12,1-1.94.9-2.15,1.26a10.76,10.76,0,0,0-1.66,1L18,191.51a5.23,5.23,0,0,0-1.11.82h-.25l-2.08,1.87-1.33,1.19L11.8,197c-.57.57-1.11,1.15-1.61,1.76h0a43.33,43.33,0,0,0-5.79,9.2A42.14,42.14,0,0,0,.81,218.06h0a9.39,9.39,0,0,1-.43,2.4,14.72,14.72,0,0,1-.25,2.09c-.29.68,0,1.18,0,1.79v7.19a4.41,4.41,0,0,0,.25,1.94c.29.65,0,1.65.39,2.48A9.53,9.53,0,0,1,1.24,238a9.39,9.39,0,0,0,.58,2.26c.21.72.43,1.4.71,2.12s.47,1.37.76,2.05.61,1.44,1,2.15.57,1.3.86,1.87S6,250,6.42,250.68l1,1.65c.5.76,1.08,1.51,1.65,2.3l.83,1.12L191.45,482.63l.25.29h0l.32.32c.9,1.12,1.87,2.23,2.88,3.27l1.22,1.12c.75.72,1.54,1.4,2.33,2.05l1.73,1.36c.68.5,1.36,1,2.08,1.4l2.12,1.33.79.5,1,.47c1.11.58,2.23,1.08,3.38,1.58l1.87.76c1,.39,2,.72,3.09,1l2.22.61c1,.25,2,.39,3,.57l2.33.4h5.18a42.71,42.71,0,0,0,5.17-.32h1a53.77,53.77,0,0,0,5.32-1.05h.36c1.65-.5,3.3-1,4.92-1.68l.72-.29c1.62-.72,3.2-1.47,4.74-2.34l1-.61c1.18-.72,2.37-1.51,3.59-2.37.36-.29.75-.5,1.11-.83l.36-.25a37.13,37.13,0,0,0,3.6-3.27l.93-1c1-1.07,2-2.19,2.87-3.3l.9-1.22c1-1.44,2-2.95,2.91-4.46h0a.73.73,0,0,1,0-.36L491.31,71.9A45.42,45.42,0,0,0,500,45.74Z" style="fill: #6ba5b4"/>
</svg>
