<?xml version="1.0" encoding="utf-8"?>
<!-- Generator: Adobe Illustrator 25.2.3, SVG Export Plug-In . SVG Version: 6.00 Build 0)  -->
<svg version="1.1" id="Calque_1" xmlns="http://www.w3.org/2000/svg" xmlns:xlink="http://www.w3.org/1999/xlink" x="0px" y="0px"
	 viewBox="0 0 800 800" style="enable-background:new 0 0 800 800;" xml:space="preserve">
<style type="text/css">
	.st0{fill:none;stroke:#020203;stroke-width:27;stroke-linejoin:round;stroke-miterlimit:10;}
	.st1{fill:none;stroke:#020203;stroke-width:27;stroke-linecap:round;stroke-linejoin:round;stroke-miterlimit:10;}
	.st2{fill:none;stroke:#020203;stroke-width:27;stroke-miterlimit:10;}
</style>
<g>
	<polygon class="st0" points="422.3,176.9 318.3,280.9 273.7,236.3 229.1,280.9 318.3,370 466.8,221.5 	"/>
	<path class="st1" d="M377.7,471.9c-9.7,1.4-19.7,2.1-29.8,2.1c-114.9,0-208-93.1-208-208S233.1,58,348,58s208,93.1,208,208
		c0,37.9-10.1,73.4-27.8,104"/>
	<path class="st2" d="M481.7,459.1h29.7c9.4,0,24,5.9,29.7,14.9h29.7c13.9,0,29.7,13,29.7,29.7h29.7c13.9,0,29.7,13,29.7,29.7V682
		c0,30.1-29.7,54.3-29.7,74.3"/>
	<line class="st2" x1="541.1" y1="474" x2="541.1" y2="548.3"/>
	<line class="st2" x1="600.5" y1="503.7" x2="600.5" y2="563.1"/>
	<path class="st2" d="M481.7,548.3V370c0.1-16.4-13.3-29.6-29.7-29.7c-16.4-0.2-29.6,12.8-29.7,29.2c0,0,0,178.5,0,226.9
		c0,4.1-5.1,5.9-7.8,2.9c-10.7-12.1-34.3-39-51.6-51.1c-11-7.7-26.2-8.3-38.4-2.5c-17.2,8.1-20.8,31-8,45.1
		c38.4,42.6,52,99.7,91,135.6c15.6,15.6,14.9,21.4,14.9,29.7"/>
</g>
</svg>
