<?xml version="1.0" encoding="utf-8"?>
<!-- Generator: Adobe Illustrator 25.2.3, SVG Export Plug-In . SVG Version: 6.00 Build 0)  -->
<svg version="1.1" id="Calque_1" xmlns="http://www.w3.org/2000/svg" xmlns:xlink="http://www.w3.org/1999/xlink" x="0px" y="0px"
	 viewBox="0 0 800 800" style="enable-background:new 0 0 800 800;" xml:space="preserve">
<style type="text/css">
	.st0{fill:none;stroke:#020203;stroke-width:20;stroke-linecap:round;stroke-linejoin:round;stroke-miterlimit:10;}
</style>
<g>
	<path class="st0" d="M12.5,545.2l20.1-20.1c40.7-40.7,106.6-40.7,147.3,0l37.3,37.3c11.1,11,26.2,16.6,42.1,15
		c12.4-1.2,23.8-7.2,32.6-15.9l36.4-36.4c19.7-19.7,45.8-30.5,73.6-30.5c27.8,0,54,10.8,73.6,30.5l37.4,37.3
		c9.8,9.8,22.9,15.3,36.9,15.3c13.9,0,27-5.4,36.9-15.3l37.4-37.3c40.6-40.6,106.7-40.6,147.3,0l16.5,16.5l-16.5-16.5
		c-40.6-40.6-106.7-40.6-147.3,0l-37.4,37.3c-9.8,9.8-22.9,15.3-36.9,15.3c-13.9,0-27-5.4-36.9-15.3l-37.4-37.3
		c-19.6-19.7-45.8-30.5-73.6-30.5c-27.8,0-54,10.8-73.6,30.5l-36.4,36.4c-8.8,8.8-20.2,14.8-32.6,15.9c-15.8,1.5-31-4-42.1-15
		l-37.3-37.3c-40.7-40.7-106.6-40.7-147.3,0L12.5,545.2z"/>
	<path class="st0" d="M12.5,680.3l20.1-20.1c40.7-40.7,106.6-40.7,147.3,0l37.3,37.3c11.1,11,26.2,16.6,42.1,15
		c12.4-1.2,23.8-7.2,32.6-15.9l36.4-36.4c19.7-19.7,45.8-30.5,73.6-30.5c27.8,0,54,10.8,73.6,30.5l37.4,37.3
		c9.8,9.8,22.9,15.3,36.9,15.3c13.9,0,27-5.4,36.9-15.3l37.4-37.3c40.6-40.6,106.7-40.6,147.3,0l16.5,16.5l-16.5-16.5
		c-40.6-40.6-106.7-40.6-147.3,0l-37.4,37.3c-9.8,9.8-22.9,15.3-36.9,15.3c-13.9,0-27-5.4-36.9-15.3l-37.4-37.3
		c-19.6-19.7-45.8-30.5-73.6-30.5c-27.8,0-54,10.8-73.6,30.5l-36.4,36.4c-8.8,8.8-20.2,14.8-32.6,15.9c-15.8,1.5-31-4-42.1-15
		l-37.3-37.3c-40.7-40.7-106.6-40.7-147.3,0L12.5,680.3z"/>
	<polygon class="st0" points="296.8,379.3 296.8,435.5 502.4,435.5 296.8,435.5 	"/>
	<path class="st0" d="M387.5,273v-9.3c0-43.3,33.6-80.3,76.9-81.9c45.5-1.7,83.1,34.8,83.1,79.9v259.9V261.8
		c0-45.1-37.6-81.6-83.1-79.9c-43.3,1.7-76.9,38.6-76.9,81.9V273z"/>
	<path class="st0" d="M136.8,273v-9.3c0-43.3,33.6-80.3,76.9-81.9c45.5-1.7,83.1,34.8,83.1,79.9v80h205.6H296.8v-80
		c0-45.1-37.6-81.6-83.1-79.9c-43.3,1.7-76.9,38.6-76.9,81.9V273z"/>
	<path class="st0" d="M298.7,469.3v35.8V469.3z"/>
</g>
</svg>
