<svg width="168" height="74" viewBox="0 0 168 74" xmlns="http://www.w3.org/2000/svg" aria-hidden="true" focusable="false"><path d="m79.422 57.534-.408 1.539h-4.332l-.772 1.987c2.294 1.154 4.525 2.415 4.525 5.279 0 2.692-2.145 4.701-4.826 4.701-1.008 0-2.724-.556-2.724-1.539 0-.448.322-.577.6-.577.794 0 .752 1.496 2.51 1.496 1.845 0 2.896-1.496 2.896-3.227 0-2.607-2.124-3.74-4.183-4.744l1.845-4.915h4.869zm7.27-.3c1.566 0 2.767 1.112 2.767 2.715 0 1.581-1.33 2.82-2.788 3.398l.043.042c1.051-.106 3.475.385 3.475 3.056 0 1.86-1.523 4.574-5.19 4.574-1.781 0-2.918-1.005-2.918-1.603 0-.342.322-.62.622-.62.708 0 .708 1.603 2.703 1.603 1.866 0 3.045-1.41 3.045-3.206 0-2.479-1.694-3.12-3.86-2.991v-.47h-.043c1.63-.129 3.367-1.197 3.367-3.014 0-1.367-.858-2.33-2.23-2.33-1.051 0-1.716.62-2.424 1.326l-.279-.363c1.051-1.219 2.038-2.116 3.71-2.116zm11.626 1.027c2.702 0 4.975 2.286 4.997 5.022 0 2.457-1.93 5.107-5.04 5.107-2.703 0-4.998-2.287-4.998-5 0-2.48 1.93-5.13 5.04-5.13zm-32.001.042.407.171v8.589c.004.172.045.301.622.301v-.042h.858v.812h-.236c-.343 0-.707-.022-1.05-.022-1.116-.021-2.188 0-3.24.022h-.235v-.812h.965c.622 0 .622-.15.622-.342v-6.817c-.515.299-1.051.577-1.566.833l-.193.107-.407-.727.214-.107c.944-.491 1.93-1.09 3.132-1.902l.107-.064zm31.829.855c-1.78 0-2.938 1.496-2.938 3.868 0 1.795 1.03 4.488 3.217 4.488 1.78 0 2.938-1.517 2.938-3.847 0-1.816-1.03-4.509-3.217-4.509zM55.1 62.726v1.412H2.96v-1.412H55.1zm109.128 0v1.412h-52.162v-1.412h52.162zM109.17 30.244c.065 0 .172.022.3.022a51.056 51.056 0 0 1 2.531 2.628c.644.748 3.003 3.313 7.1 7.715v-.278l-.043-1.26c-.022-.727-.064-1.326-.086-1.753-.043-.428-.064-.94-.064-1.539 0-.598-.022-1.132-.065-1.624-.085-.962-.128-1.496-.128-1.645-.022-.47-.065-.748-.15-.855-.15-.171-.472-.278-.966-.364-.364-.064-.643-.15-.815-.256l.022-.641.257-.021 1.973-.065 2.21-.064h.429v.706c-.15.085-.3.15-.472.192-.43.107-.687.192-.751.235-.343.214-.536.342-.558.385-.064.085-.085.235-.085.406 0 .042 0 .192.021.448v.92c.021 1.046.043 1.901.086 2.5 0 .192.021.427.021.662l.107 3.825v1.924l.022.577-.022.598c.022.3.043.47.043.534v.577l-1.158.043-1.2-1.346-2.446-2.629-1.694-1.859-1.244-1.39a84.38 84.38 0 0 0-2.231-2.307l-1.63-1.603.086 4.06v1.54l.064 1.43c.022.6.043 1.24.107 1.946 0 .192.022.32.043.406.022.064.065.17.129.32.279.107.836.193 1.716.235.064.022.15.043.257.086l.043.876h-.431c-.242-.009-.91-.071-1.971-.171a68.368 68.368 0 0 0-2.124.064c-.343.021-.536.043-.579.043a2.7 2.7 0 0 1-.321-.043c-.022-.15-.022-.3-.022-.427v-.385c.193-.043.343-.064.472-.064.043 0 .172 0 .386.021.58 0 .901-.042 1.008-.128.107-.085.15-.32.172-.727.043-1.154.064-1.859.064-2.115v-.599l.022-3.547-.022-2.222c0-.834-.064-1.432-.15-1.753-.043-.15-.129-.299-.236-.427a2.29 2.29 0 0 0-.794-.599c-.171-.085-.622-.192-1.35-.384l-.044-.77h.858l.3-.021c.408-.021.687-.021.837-.021h.046c.11 0 .33.003.662.021h.214c.043 0 .258 0 .622-.021.274-.016.463-.02.558-.021zm23.743-.256c.815 0 1.609.043 2.338.128.73.086 1.416.235 2.102.449.086.214.279.833.536 1.859.129.449.193.94.193 1.475h-.922c-.643-1.005-1.308-1.71-1.995-2.137a4.271 4.271 0 0 0-2.295-.642c-1.029 0-1.865.45-2.509 1.325-.858 1.197-1.287 2.843-1.287 4.98 0 1.218.065 2.094.215 2.628.257.834.557 1.539.922 2.073a2.97 2.97 0 0 0 1.094.962c.579.32 1.222.491 1.887.491.73 0 1.437-.256 2.124-.748.686-.491 1.35-1.24 1.973-2.222.236-.043.557-.086.965-.086a6.352 6.352 0 0 1-.129.855c-.021.128-.107.577-.236 1.39l-.085.32-.15.513c-.408.342-.987.598-1.716.769-.73.171-1.652.256-2.724.256-.815 0-1.609-.085-2.338-.256a4.885 4.885 0 0 1-1.888-.79c-.772-.535-1.372-1.09-1.801-1.71a6.836 6.836 0 0 1-.965-1.988c-.215-.705-.322-1.517-.322-2.415 0-2.158.665-3.953 1.973-5.364 1.33-1.41 3.003-2.115 5.04-2.115zm-101.042.32c.386.043.708.065.987.107.536.086 1.137.128 1.844.128.258 0 .858-.02 1.866-.064a70.484 70.484 0 0 1 4.054-.106l1.823-.022c.408 0 1.008.064 1.802.171.107.15.171.342.171.598v2.244l.022.45c0 .042-.022.106-.022.191l-.407.022c-.065 0-.172 0-.343-.022-.065-.15-.129-.363-.236-.64l-.408-.77a4.901 4.901 0 0 0-.643-1.004 2.605 2.605 0 0 0-.644-.086c-.064-.021-.279-.043-.622-.064a20.047 20.047 0 0 0-2.016-.085c-.815 0-1.544.02-2.188.042-.014.129-.019.485-.02 1.081v.603l-.001.475v3.205c.172.022.3.043.429.043 1.201 0 2.059-.043 2.574-.086.515-.042.815-.128.943-.213.13-.086.236-.257.322-.47.043-.171.172-.706.343-1.603l.13-.022.578.022c.022.641.043 1.132.043 1.474 0 .77-.021 1.261-.021 1.475-.022.214-.022.385-.022.513v.196c.002.188.006.439.022.744 0 .428.021.748.021.962v.235h-.708c-.021-.128-.086-.363-.15-.727-.129-.662-.257-1.09-.364-1.26a.758.758 0 0 0-.408-.3c-.129-.064-.622-.085-1.48-.085-1.03 0-1.78.021-2.295.085v.364c0 .876.022 1.58.043 2.158l-.021 2.35c0 .278.107.47.278.578.258.15 1.116.235 2.51.235.922 0 1.716-.086 2.36-.235.45-.107.836-.342 1.179-.727.45-.491.836-1.175 1.137-2.051.214-.043.386-.043.514-.043h.322c-.021.192-.021.342-.043.47l-.064.32-.365 2.052-.171 1.24c-.43.02-.773.042-1.03.042-.365 0-1.373-.043-3.003-.107-1.136-.064-2.53-.085-4.14-.085-.793 0-1.78.043-2.938.107h-.429l-1.222.042v-.747c.129-.043.386-.086.772-.129.686-.085 1.18-.192 1.437-.342.064-.213.107-.47.107-.79v-.983l-.021-4.103v-1.24l-.043-1.752v-1.24l-.086-1.346c0-.043 0-.107-.021-.214-.065-.085-.172-.128-.3-.15a2.286 2.286 0 0 0-.3-.063 6.408 6.408 0 0 0-1.095-.15c-.128 0-.278-.021-.45-.043zm110.136-.021c.365.043.708.064.987.107.536.085 1.158.128 1.845.128.257 0 .857-.021 1.866-.064a70.484 70.484 0 0 1 4.053-.107l1.823-.021c.408 0 1.008.064 1.802.17.107.15.172.343.172.6v2.243l.021.449c0 .042-.021.107-.021.192l-.408.021c-.064 0-.172 0-.343-.02-.064-.15-.129-.364-.236-.642l-.408-.77a4.901 4.901 0 0 0-.643-1.004 2.605 2.605 0 0 0-.643-.085c-.065-.022-.258-.043-.601-.064a20.047 20.047 0 0 0-2.016-.086c-.815 0-1.544.022-2.188.043-.017.154-.02.636-.021 1.468v3.896c.171.021.3.043.429.043 1.2 0 2.059-.043 2.573-.086.515-.043.815-.128.944-.214.129-.085.236-.256.322-.47.043-.17.171-.705.343-1.603l.129-.02.579.02c.021.642.043 1.133.043 1.475 0 .77-.022 1.26-.022 1.475-.021.213-.021.384-.021.512 0 .193 0 .513.021.94.022.428.022.749.022.962v.235h-.708a11.165 11.165 0 0 0-.15-.726c-.129-.663-.258-1.09-.365-1.261a.758.758 0 0 0-.407-.3c-.129-.063-.622-.085-1.48-.085-1.03 0-1.78.022-2.295.086v.363c0 .876.021 1.582.043 2.159l-.022 2.35c0 .278.108.47.28.599.256.15 1.114.235 2.509.235.922 0 1.715-.086 2.359-.235.45-.107.836-.342 1.18-.727.45-.491.836-1.175 1.136-2.051.215-.043.386-.043.515-.043h.322c-.022.192-.022.342-.043.47l-.065.32-.364 2.052-.172 1.24c-.429.02-.772.042-1.03.042-.364 0-1.372-.043-3.002-.107-1.137-.064-2.53-.085-4.14-.085-.793 0-1.78.043-2.96.107h-.428l-1.223.042v-.747c.129-.043.386-.086.772-.129.687-.085 1.18-.192 1.437-.342.065-.213.108-.47.108-.79v-.983l-.022-4.103.022-1.24-.043-1.752v-1.24l-.086-1.346c0-.043 0-.107-.022-.214-.064-.085-.171-.128-.3-.15a2.286 2.286 0 0 0-.3-.063 6.408 6.408 0 0 0-1.094-.15c-.129 0-.279-.021-.45-.043zm-62.392-.064c1.372 0 2.466.385 3.281 1.133.815.747 1.223 1.624 1.223 2.607 0 .748-.236 1.41-.665 2.009-.429.598-1.115 1.068-2.016 1.367.086.15.193.32.322.534.278.428.514.813.686 1.112l1.609 2.82c.407.749.664 1.176.793 1.304.129.128.386.278.772.428.3.106.536.235.687.363a.944.944 0 0 1 .064.32v.257h-.279l-.193.021-.515-.085h-.407a4.094 4.094 0 0 0-.794-.064h-1.008c-.086 0-.322.042-.708.085-.171.021-.321.021-.429.043l-.343-.727c-.279-.534-.493-.94-.6-1.218-.3-.705-.815-1.838-1.523-3.376-.343-.727-.58-1.133-.708-1.218-.193-.15-.536-.236-1.03-.236-.128 0-.364 0-.686.022 0 .214-.021.449-.021.748l.043 2.415-.065 2.051c.193.107.43.214.73.278.536.107.986.235 1.35.406 0 .363-.02.641-.042.812h-.236l-.408.021c-1.437-.15-2.295-.213-2.552-.213h-.365l-1.394.107c-.429.042-.815.064-1.158.064h-.429c-.021-.171-.021-.3-.021-.342 0-.086.021-.193-.043-.278.171-.085.429-.171.772-.214a3.88 3.88 0 0 0 .922-.235c.043-.15.065-.256.065-.32.014-.072.019-.247.02-.534l.001-2.95.043-1.303-.022-1.005.022-.598c.021-.79.021-1.539.021-2.223v-.296a63.913 63.913 0 0 0-.043-2.61l-.6-.128c-.558-.043-.922-.064-1.094-.107l-.021-.662.043-.129c.343-.064.643-.085.922-.085.171 0 .472-.021.944-.021.493.042.75.064.793.064l.536-.022 1.266-.064a23.046 23.046 0 0 1 2.488-.128zm-11.368-.021c.043.235.065.448.086.662l.15 2.052c0 .235-.021.384-.064.512-.236.022-.43.043-.536.043a.528.528 0 0 1-.322-.107c-.043-.042-.129-.213-.236-.491-.279-.727-.515-1.176-.708-1.304-.193-.128-.75-.192-1.651-.192l-1.394.043c-.58 0-1.051.042-1.395.107-.064.02-.171.042-.321.106a1.423 1.423 0 0 0-.129.641l.021 1.304-.021 1.496c0 .748.021 1.218.064 1.389.065.064.108.085.15.085l.708.022h1.201c.258 0 .665-.043 1.223-.107.386-.043.622-.107.708-.17.15-.13.279-.279.343-.45.064-.17.129-.62.15-1.303.043 0 .129-.022.279-.022h.252c.09.001.22.005.391.022l-.064 1.752c0 .385 0 .705-.022.962l.022.235v1.923c-.129.021-.236.043-.3.043-.065 0-.193-.022-.408-.064-.043-.128-.129-.342-.193-.599-.15-.577-.322-.919-.493-1.004-.322-.171-1.33-.256-3.024-.256-.236 0-.537.042-.858.085-.043.32-.065.662-.065 1.069l.043 3.27c0 .598.065.96.172 1.11.064.086.322.171.75.257l.194.021c.3.022.557.086.793.15l.279.064c.021.192.043.342.043.449 0 .128 0 .256-.022.427l-.193-.021-.321.021-1.416-.085c-.118-.015-.51-.02-1.175-.021h-1.077c-.365 0-.708.02-1.051.063-.515.064-.815.107-.858.107-.429 0-.73-.021-.9-.021l.02-.79c.15-.044.387-.086.73-.172l1.03-.256.193-.128c.064-.3.107-.599.107-.898v-.064l-.043-2.5V38.6l-.064-1.581.021-1.86-.129-3.654c-.086-.085-.407-.192-.965-.3-.129-.02-.322-.085-.579-.17l-.236-.064v-.77l1.33.043c.793.086 1.973.129 3.539.129.772 0 1.587-.022 2.445-.065h1.308l1.802-.064c.086 0 .193 0 .322-.021.128 0 .257-.021.364-.021zm-48.923-.171c1.48 0 2.574.106 3.26.277 1.051.278 1.888.706 2.552 1.261a7.453 7.453 0 0 1 1.974 2.607c.45.983.665 2.073.665 3.227 0 1.475-.28 2.736-.88 3.783-.579 1.047-1.437 1.88-2.53 2.522-.773.47-1.824.683-3.154.683l-2.059-.085-.622-.021-.815.02-.236-.02-.836.02h-1.115c-.043 0-.386.022-1.03.065-.214 0-.493.021-.836.021h-.472c0-.17-.022-.448-.043-.897.107-.022.3-.064.622-.128.622-.129 1.03-.278 1.222-.47.13-.129.194-.364.236-.706v-.05c.004-.254.026-1.332.065-3.284v-2.65l-.022-3.718v-.427a.687.687 0 0 0-.15-.428c-.043-.064-.171-.085-.386-.085-.171 0-.365.021-.6.064-.3.021-.558.043-.794.085-.043 0-.107 0-.193.022l-.022-.962c.387-.15.966-.278 1.695-.406 1.222-.214 2.724-.32 4.504-.32zm76.741-.043.086.192 1.738 4.488c.407.962.75 1.88 1.072 2.778.322.898.58 1.646.815 2.201.15.342.322.855.558 1.539.128.363.3.833.557 1.389.129.3.236.491.3.534.108.107.3.171.58.214.279.043.557.128.88.256.02.235.042.428.042.535v.235c-.493 0-1.03-.043-1.63-.086-.6-.064-1.137-.085-1.609-.085-.514 0-.9 0-1.136.021l-1.716.107-.494.021c0-.256 0-.491.022-.726l1.115-.257c.343-.085.515-.17.58-.213.064-.086.106-.15.106-.257 0-.107 0-.192-.042-.3l-.408-1.068-.794-2.137h-3.839a78.634 78.634 0 0 0-.88 2.565c-.128.384-.192.64-.192.79 0 .193.064.321.15.407.15.15.45.235.88.299.064.021.3.064.707.128.022.278.022.449.022.556 0 .085 0 .17-.022.256-.429 0-1.415-.064-2.981-.192l-.408.085a8.297 8.297 0 0 1-1.415.128h-.172l.022-.748c.128-.042.343-.106.665-.17.514-.107.836-.214.943-.3.107-.085.258-.299.408-.64l2.016-5.77 2.38-6.775h1.094zm-76.248 1.09c-.686 0-1.265.107-1.758.299-.022.235-.022.385-.022.491l.022 1.86v1.602c.021.513.021.983.021 1.368l-.021 1.026.021 1.73-.021 1.07c0 1.004.171 1.666.514 2.03.494.512 1.18.769 2.038.769.643 0 1.137-.064 1.458-.214a3.876 3.876 0 0 0 1.566-1.09c.386-.47.686-1.111.88-1.944.192-.855.3-1.71.3-2.608 0-1.474-.215-2.67-.644-3.59-.45-.919-1.03-1.624-1.78-2.094-.75-.47-1.609-.705-2.574-.705zm74.876 2.992-1.459 4.21c1.566.02 2.488.042 2.767.042l.258-.021c-.215-.641-.472-1.41-.794-2.265-.3-.855-.58-1.518-.772-1.966zm-16.751-2.843c-.3 0-.58.022-.794.064l-.021.214.021 1.475-.021.897.021 1.197c0 .342-.021.77-.021 1.304h-.043v.256c.322.021.558.021.708.021 1.136 0 1.951-.213 2.423-.662.472-.449.708-1.026.708-1.774 0-.449-.064-.876-.172-1.282-.107-.406-.257-.705-.428-.898-.236-.277-.558-.491-.966-.64-.3-.108-.772-.172-1.415-.172zM50.66 5.733c1.394 0 2.595.299 3.624.854a6.607 6.607 0 0 1 2.424 2.308c.75 1.261 1.137 2.565 1.137 3.954 0 2.051-.644 3.804-1.93 5.278-1.309 1.475-3.089 2.202-5.384 2.202a9.361 9.361 0 0 1-1.587-.129 3.93 3.93 0 0 1-.987-.235l-.308-.115-.24-.09a14.925 14.925 0 0 0-.31-.115 8.825 8.825 0 0 1-1.758-1.39 7.138 7.138 0 0 1-1.116-1.602c-.171-.342-.364-.94-.579-1.817-.128-.555-.193-1.218-.193-1.944 0-.898.15-1.817.472-2.714.236-.641.558-1.24.987-1.795a6.938 6.938 0 0 1 1.587-1.454 7.03 7.03 0 0 1 1.952-.919c.664-.192 1.394-.277 2.209-.277zM33.887 5.69c.837 0 1.609.043 2.338.128.73.086 1.416.235 2.102.449.086.214.279.833.536 1.86.129.448.193.94.193 1.474h-.922c-.643-1.005-1.308-1.71-1.995-2.137a4.271 4.271 0 0 0-2.295-.641c-1.03 0-1.866.448-2.509 1.325-.858 1.196-1.287 2.842-1.287 4.979 0 1.218.064 2.094.215 2.628.257.834.557 1.539.922 2.073a2.97 2.97 0 0 0 1.094.962c.6.32 1.222.491 1.887.491.73 0 1.437-.256 2.123-.748.687-.491 1.352-1.24 1.974-2.222.236-.043.557-.086.965-.086a6.352 6.352 0 0 1-.129.855c-.021.128-.107.577-.236 1.39l-.086.32-.15.513c-.407.342-.986.598-1.716.77-.729.17-1.651.256-2.723.256-.837 0-1.609-.086-2.338-.257-.73-.17-1.373-.427-1.888-.79-.772-.535-1.372-1.09-1.801-1.71a6.582 6.582 0 0 1-.966-1.988c-.214-.705-.321-1.517-.321-2.415 0-2.158.643-3.953 1.973-5.363 1.33-1.41 3.003-2.116 5.04-2.116zm84.592.021c.128 0 .343.022.643.064.815 0 1.587.129 2.295.342.708.235 1.287.492 1.759.791.043.214.107.641.172 1.24.064.64.085 1.09.085 1.367a.883.883 0 0 1-.064.342c-.279 0-.536-.043-.73-.085-.514-.855-.857-1.39-1.072-1.603-.386-.406-.9-.77-1.501-1.047-.45-.214-.965-.32-1.544-.32-1.116 0-2.102.533-2.96 1.623-.858 1.09-1.287 2.693-1.287 4.851 0 1.026.172 2.01.493 2.95.322.961.815 1.71 1.48 2.243a3.616 3.616 0 0 0 2.338.812c.45 0 .9-.064 1.394-.192.236-.043.45-.17.6-.342.108-.107.172-.278.215-.513.065-.427.086-1.026.086-1.795v-.684c-.002-.401-.007-.69-.021-.876-.043-.107-.086-.192-.13-.214a2.113 2.113 0 0 0-.407-.15l-.9-.256c-.194-.064-.322-.128-.365-.192-.022-.107-.022-.17-.022-.214 0-.107.022-.235.065-.427.128-.043.214-.064.257-.064.73 0 1.351.043 1.888.085.193.022.407.022.622.022l1.587-.022.665-.021c.064 0 .3 0 .665.021.021.193.021.364.021.492a.736.736 0 0 1-.064.278c-.108.064-.3.17-.58.277-.278.107-.45.171-.471.214a.682.682 0 0 0-.108.278 5.695 5.695 0 0 0-.02.614v.313l-.001.377v.206c-.003.731-.021 1.175-.021 1.332-.022.534-.043.855-.043.92 0 .256-.043.427-.108.49-.193.193-.772.428-1.737.684-.965.257-2.102.385-3.389.385-.9 0-1.694-.085-2.359-.235a5.302 5.302 0 0 1-1.694-.684 6.605 6.605 0 0 1-1.609-1.474 5.92 5.92 0 0 1-1.008-1.88 8.998 8.998 0 0 1-.472-2.865c0-1.068.236-2.158.686-3.248a7.426 7.426 0 0 1 1.416-2.137c.6-.64 1.351-1.132 2.273-1.517a8.039 8.039 0 0 1 2.982-.556zm9.759.278c.364.021.707.064.986.107.537.085 1.159.128 1.845.128.257 0 .858-.021 1.866-.064a70.484 70.484 0 0 1 4.054-.107l1.844-.043c.408 0 1.008.065 1.802.171.107.15.171.342.171.599v2.244l.043.448v.193l-.407.021c-.065 0-.172 0-.343-.021-.065-.15-.13-.364-.236-.641l-.408-.77a4.901 4.901 0 0 0-.643-1.004 2.605 2.605 0 0 0-.644-.086c-.086 0-.279-.02-.622-.042a20.047 20.047 0 0 0-2.016-.086c-.815 0-1.544.022-2.188.043-.014.114-.019.475-.02 1.07v.385l-.001.214v3.674c.171.02.3.02.429.02h.293c1.049-.003 1.809-.024 2.28-.063.515-.043.816-.128.944-.214.13-.085.236-.235.322-.47.043-.15.172-.684.343-1.603l.129-.021.579.021c.021.641.043 1.133.043 1.475v.617c-.002.422-.006.708-.022.857-.021.214-.021.385-.021.513 0 .192 0 .513.021.94.015.285.02.523.021.713v.484h-.707c-.021-.128-.086-.363-.15-.726-.129-.663-.257-1.09-.365-1.261a.758.758 0 0 0-.407-.3c-.129-.042-.622-.064-1.48-.064-1.03 0-1.78.022-2.295.086v.363c0 .876.021 1.582.043 2.159l-.022 2.35c0 .278.108.47.28.577.278.171 1.136.235 2.53.235.922 0 1.716-.085 2.36-.235.45-.107.836-.342 1.18-.726.45-.492.836-1.176 1.136-2.052.214-.021.386-.021.515-.021h.343c-.022.17-.022.32-.043.449l-.086.342-.365 2.051-.171 1.24c-.43.02-.772.042-1.03.042-.386 0-1.372-.042-3.002-.107-1.137-.064-2.531-.085-4.14-.085-.793 0-1.78.043-2.96.107h-.429l-1.222.043v-.748c.128-.043.386-.086.772-.129.686-.085 1.18-.192 1.437-.342.064-.213.107-.47.107-.79v-.983l-.021-4.103.021-1.24-.021-1.752V8.83l-.086-1.346c0-.021 0-.107-.021-.214-.065-.085-.172-.128-.3-.15a2.286 2.286 0 0 0-.301-.063 6.964 6.964 0 0 0-1.115-.15c-.129 0-.28-.021-.45-.043zm-34.896 0c.364.021.707.064.986.107.536.085 1.137.128 1.845.128.257 0 .88-.021 1.866-.064a70.484 70.484 0 0 1 4.053-.107l1.823-.043c.408 0 1.009.065 1.802.171.107.15.172.342.172.599v2.244l.021.448v.193l-.407.021c-.065 0-.172 0-.344-.021-.064-.15-.128-.364-.235-.641l-.408-.77a4.901 4.901 0 0 0-.643-1.004 2.605 2.605 0 0 0-.644-.086c-.064 0-.279-.02-.622-.042a20.047 20.047 0 0 0-2.016-.086c-.815 0-1.544.022-2.188.043 0 .171-.021.898-.021 2.137l.021 1.838v1.368c.172.02.3.02.43.02h.292c1.049-.003 1.81-.024 2.281-.063.515-.043.815-.128.944-.214.128-.085.236-.235.321-.47.065-.15.194-.684.365-1.603l.129-.021.579.021c.021.641.043 1.133.043 1.475 0 .77-.022 1.26-.022 1.474-.021.214-.021.385-.021.513 0 .192 0 .513.021.94.022.428.022.748.022.962v.235h-.708c-.021-.128-.086-.363-.15-.726-.129-.663-.258-1.09-.365-1.261a.758.758 0 0 0-.407-.3c-.129-.042-.622-.064-1.48-.064-1.008 0-1.759.022-2.274.086v.363c0 .876.022 1.582.043 2.159l-.021 2.35c0 .278.107.47.279.577.257.171 1.115.235 2.509.235.944 0 1.737-.085 2.38-.235.451-.107.837-.342 1.18-.726.45-.492.837-1.176 1.137-2.052.215-.021.386-.021.515-.021h.322c-.022.17-.022.32-.043.449l-.065.342-.364 2.051-.193 1.24c-.43.02-.772.042-1.03.042-.364 0-1.372-.042-3.002-.107-1.137-.064-2.531-.085-4.14-.085-.794 0-1.78.043-2.96.107h-.429l-1.222.043v-.748c.128-.043.386-.086.772-.129.686-.085 1.18-.192 1.437-.342.064-.213.107-.47.107-.79 0-.128-.021-.342-.021-.641l.021-.342-.021-4.103v-1.24l-.043-1.752.021-1.24-.086-1.346c0-.021 0-.107-.021-.214-.064-.085-.172-.128-.3-.15a2.286 2.286 0 0 0-.3-.063 6.408 6.408 0 0 0-1.094-.15c-.13 0-.28-.021-.45-.043zm-8.923-.107c.107 0 .172.022.215.086.064.085.085.213.085.427 0 .171-.042.3-.107.385-.043.043-.193.085-.45.128l-1.244.32-.172.086-.064.128v.3l-.043.683v.381c-.001.09-.005.266-.022.538v.363c.001.124.005.291.022.513 0 .45.021.834.021 1.154 0 .385 0 .812-.021 1.304-.022.17-.022.406-.022.705l-.042 5.172c0 .213.042.363.107.427l.986.043h1.223c1.072 0 1.909-.15 2.53-.406.451-.192.752-.406.902-.598a2.89 2.89 0 0 0 .557-.706c.15-.256.322-.684.494-1.26h.321c.15 0 .344.02.537.042v.3c0 .512-.043 1.431-.172 2.735-.064.534-.107.833-.15.961-.172.022-.258.043-.3.043h-.88c-.064 0-.472-.021-1.2-.085-.13 0-.773-.022-1.91-.064a91.082 91.082 0 0 0-3.367-.065l-2.06.065c-.771.021-1.522.064-2.208.128h-.15c-.043 0-.108-.022-.193-.022-.022-.085-.022-.15-.022-.213 0-.3.022-.535.043-.705a7.23 7.23 0 0 1 .88-.193c.364-.064.6-.085.664-.085.258 0 .43-.043.515-.129.043-.17.064-.32.064-.427l-.021-1.389.064-1.41v-.898l.022-1.068-.022-1.133.043-2.436.022-1.112v-.15c-.043-.768-.086-1.174-.15-1.239-.043-.085-.237-.17-.58-.299-.043-.021-.171-.085-.386-.17-.171-.065-.321-.129-.45-.15-.236-.064-.408-.15-.493-.235-.022-.171-.022-.321-.022-.428 0-.064.022-.15.022-.256a.347.347 0 0 1 .193-.064c.15 0 .729.021 1.737.085l1.437-.021 1.072.021c.472 0 1.051-.021 1.78-.085.215-.022.344-.022.365-.022zm-15.764 0c.107 0 .171.022.214.086.065.085.086.213.086.427 0 .171-.043.3-.107.385-.043.043-.193.085-.45.128l-1.245.32-.171.086-.065.128-.021.3-.021.683v.381c-.002.09-.006.266-.022.538v.363c0 .124.004.291.022.513.021.45.021.834.021 1.154v.237c0 .322-.004.674-.021 1.067v.705l-.043 5.172c0 .213.043.363.107.427l.944.043h1.222c1.073 0 1.909-.15 2.531-.406.45-.192.772-.406.9-.598a2.89 2.89 0 0 0 .559-.706c.15-.256.321-.684.493-1.26h.322c.15 0 .343.02.536.042v.3c0 .512-.043 1.431-.172 2.735-.043.534-.086.833-.129.961-.171.022-.257.043-.3.043h-.88c-.064 0-.471-.021-1.2-.085-.129 0-.772-.022-1.91-.064a91.082 91.082 0 0 0-3.367-.065l-2.037.065c-.772.021-1.523.064-2.21.128h-.15c-.042 0-.107-.022-.192-.022-.022-.085-.022-.15-.022-.213 0-.3.022-.535.022-.684a7.23 7.23 0 0 1 .879-.192c.386-.065.6-.086.665-.086.257 0 .429-.043.515-.128.042-.171.064-.32.064-.428L64 16.973l.065-1.41v-.898l.021-1.068-.021-1.133.043-2.436.021-1.111v-.15c-.043-.77-.086-1.175-.129-1.26-.042-.086-.235-.172-.579-.3a4.9 4.9 0 0 0-.386-.17c-.171-.065-.321-.129-.45-.15-.236-.064-.408-.15-.493-.235-.022-.171-.022-.321-.022-.428v-.256a.347.347 0 0 1 .193-.064c.15 0 .73.021 1.737.085l1.438-.021 1.072.021c.472 0 1.05-.021 1.78-.085.215-.022.322-.022.365-.022zm-18.424.92c-.58 0-1.094.149-1.544.448-.45.3-.773.62-1.009.983a6.181 6.181 0 0 0-.815 1.987c-.15.706-.236 1.582-.236 2.608 0 .64.022 1.068.065 1.346.021.085.043.235.064.449.065.534.129.94.215 1.175.3.919.493 1.496.622 1.71.214.384.514.748.9 1.11.215.193.494.364.88.514.386.15.75.235 1.137.235a3.92 3.92 0 0 0 2.016-.556c.622-.384 1.115-1.004 1.501-1.88.365-.877.558-2.03.558-3.44 0-.6-.043-1.369-.107-2.373l-.043-.214a3.473 3.473 0 0 1-.108-.449c-.236-1.196-.707-2.115-1.415-2.735-.708-.62-1.587-.919-2.681-.919zm50.532-5.322c.064.214.15.427.214.662.086.342.172.642.257.898.3.983.494 1.624.558 1.945L101 4.942 98.017 1.48z" fill="#004198" fill-rule="nonzero"/></svg>