<svg width="165" height="23" viewBox="0 0 165 23" fill="none" xmlns="http://www.w3.org/2000/svg">
<path d="M164.217 7.69609L164.213 7.69587C143.093 6.29017 121.915 5.54858 100.736 5.49756C79.5566 5.43273 58.3768 6.04464 37.2397 7.33241L37.2549 7.58195L37.2397 7.33242C25.3222 8.05908 13.4232 8.99253 1.54316 10.1466L1.54315 10.1465L1.53723 10.1472C1.24967 10.1821 1.11209 10.4254 1.11631 10.6324C1.11844 10.7365 1.15514 10.8525 1.24458 10.9411C1.33895 11.0345 1.46801 11.0734 1.60243 11.0581C22.6693 9.01304 43.8078 7.64291 64.96 6.94883C86.1132 6.25473 107.294 6.22265 128.46 6.86727C140.379 7.2313 152.288 7.81638 164.187 8.60872C164.323 8.61907 164.451 8.57497 164.541 8.47737C164.627 8.38522 164.659 8.26779 164.657 8.16374C164.653 7.95673 164.505 7.71923 164.217 7.69609Z" fill="#A3131D" stroke="#A3131D" stroke-width="0.5"/>
<path d="M162.733 7.56487L162.735 7.56486C163.011 7.56581 163.17 7.78091 163.19 7.97637C163.2 8.07466 163.179 8.1889 163.105 8.28339C163.025 8.38392 162.906 8.43511 162.777 8.43497M162.733 7.56487L162.775 8.18514M162.733 7.56487C143.476 7.62727 124.216 8.03926 104.966 8.79957C85.8066 9.55109 66.6717 10.662 47.56 12.12C36.734 12.9351 25.9209 13.8736 15.1196 14.9232C14.9901 14.9358 14.8803 14.9984 14.8098 15.0967C14.7429 15.19 14.7216 15.3003 14.7319 15.3992C14.7423 15.498 14.7859 15.602 14.8707 15.6805C14.9602 15.7633 15.0807 15.8036 15.2102 15.791C34.3778 13.9283 53.57 12.4249 72.7983 11.2673L162.733 7.56487ZM162.777 8.43497C162.776 8.43497 162.776 8.43497 162.775 8.43496L162.775 8.18514M162.777 8.43497C162.777 8.43497 162.777 8.43497 162.777 8.43497L162.775 8.18514M162.777 8.43497C151.925 8.46685 141.084 8.60986 130.23 8.86649L130.222 8.61674M162.775 8.18514C151.921 8.21704 141.079 8.36007 130.222 8.61674M130.222 8.61674L130.23 8.86649C111.084 9.31769 91.9363 10.1184 72.7984 11.2672L130.222 8.61674Z" fill="#A3131D" stroke="#A3131D" stroke-width="0.5"/>
</svg>
