<svg width="780" height="672" viewBox="0 0 780 672" fill="none" xmlns="http://www.w3.org/2000/svg">
<path d="M525.614 -5.3999C477.535 -5.3999 430.626 8.57313 389.854 34.7354C349.228 8.42448 302.318 -5.3999 254.24 -5.3999C114.534 -5.3999 0.839844 110.249 0.839844 252.358C0.839844 394.467 114.534 510.116 254.24 510.116C270.607 510.116 287.266 508.481 303.78 505.062C279.959 561.846 248.102 605.846 225.305 632.9C221.651 637.211 219.751 642.562 219.751 648.062C219.898 660.995 229.981 671.251 242.549 671.4C246.787 671.4 250.878 670.211 254.532 667.833C299.98 639.441 365.011 590.981 417.181 521.116C423.319 512.94 429.603 503.872 436.325 493.318C480.75 510.413 528.683 514.427 575.154 504.913C551.334 561.697 519.33 605.697 496.679 632.751C493.026 637.062 491.126 642.414 491.126 647.914C491.272 660.846 501.355 671.103 513.923 671.251C517.723 671.251 521.522 670.211 524.883 668.278L525.906 667.684C571.355 639.292 636.385 590.832 688.556 520.967C748.617 440.696 779.16 350.318 779.16 252.061C779.014 110.249 665.32 -5.3999 525.614 -5.3999ZM242.841 650.143L241.38 649.549L240.795 648.062L241.526 646.13C280.836 599.305 310.794 548.021 330.669 494.062L331.107 492.724L329.5 484.399L328.477 483.359C325.846 480.386 321.754 479.197 318.101 480.386C297.496 486.332 276.014 489.453 254.24 489.453C192.132 489.453 133.677 464.778 89.6905 420.034C45.7036 375.291 21.5911 315.831 21.445 252.655C21.445 189.479 45.7036 130.02 89.6905 85.2761C133.677 40.5327 192.132 15.8569 254.24 15.8569C295.304 15.8569 335.783 27.0056 371.441 48.2625C309.187 96.8708 272.214 173.128 272.214 252.655C272.214 351.656 329.061 442.926 417.035 485.44C411.482 494.062 406.075 501.643 400.814 508.778C350.689 575.819 287.997 622.495 244.302 649.995L242.987 650.441L242.841 650.143ZM487.034 252.507C487.034 329.061 467.16 401.453 427.995 467.453C402.86 455.561 380.355 439.656 361.065 420.034C317.078 375.291 292.819 315.831 292.819 252.655C292.819 189.331 317.078 129.871 361.065 85.2761C369.687 76.5058 379.332 68.1815 390 60.4517C400.522 68.1815 410.313 76.5058 418.935 85.2761C462.922 130.02 487.18 189.479 487.18 252.655L487.034 252.507ZM514.215 650.143L512.754 649.549L512.17 648.062L512.9 646.13C552.065 599.305 582.169 548.17 602.043 494.062L602.481 492.724L600.874 484.399L599.851 483.359C597.075 480.386 593.129 479.197 589.475 480.386C543.296 493.764 493.026 491.98 447.431 475.48C487.473 406.953 507.785 331.885 507.639 252.655C507.639 173.128 470.521 97.0194 408.413 48.2625C444.07 27.0056 484.55 15.8569 525.614 15.8569C587.722 15.8569 646.176 40.5327 690.163 85.2761C734.15 130.02 758.409 189.479 758.409 252.655C758.409 346.156 729.328 432.372 672.042 508.778C621.918 575.819 559.225 622.495 515.531 649.995L514.215 650.441V650.143Z" fill="#335573"/>
</svg>
