<svg width="50" height="50" viewBox="0 0 50 50" fill="none" xmlns="http://www.w3.org/2000/svg">
<path fill-rule="evenodd" clip-rule="evenodd" d="M3 20.6442C3 13.0996 9.11127 7 16.6442 7C19.2058 7 21.603 7.70678 23.6515 8.93588C20.0973 11.6119 17.8017 15.8691 17.8017 20.6564C17.8017 26.5358 21.2704 31.6084 26.2721 33.9385C23.2708 38.4639 19.1752 41.5859 16.0876 43.4849C16.0198 43.5264 15.9707 43.527 15.9357 43.5198C15.8935 43.5111 15.8454 43.4843 15.8058 43.4375C15.7663 43.3908 15.7475 43.3385 15.7458 43.2943C15.7444 43.2572 15.7536 43.2069 15.8072 43.1447L15.8088 43.1429C17.5665 41.086 19.616 38.151 21.0046 34.4354C21.0708 34.2583 21.0314 34.059 20.9029 33.9204C20.7743 33.7818 20.5786 33.7275 20.397 33.7802C19.2159 34.1227 17.9614 34.3006 16.6564 34.3006C9.11155 34.3006 3 28.1891 3 20.6442ZM27.2087 34.3355C24.0818 39.118 19.7839 42.3855 16.6114 44.3367C15.4147 45.0715 14.1454 43.5414 15.0495 42.4921C16.6088 40.6672 18.3965 38.1388 19.7132 34.9825C18.7287 35.193 17.7061 35.3006 16.6564 35.3006C8.55926 35.3006 2 28.7413 2 20.6442C2 12.5467 8.55955 6 16.6442 6C19.5536 6 22.2654 6.84939 24.5451 8.31362C26.8233 6.84961 29.5343 6 32.4458 6C40.5433 6 47.09 12.5596 47.09 20.6442C47.09 33.3615 37.9953 40.8958 32.4008 44.3367C31.2041 45.0715 29.9348 43.5414 30.8389 42.4921C32.3982 40.6672 34.1859 38.1388 35.5026 34.9825C34.5181 35.193 33.4954 35.3006 32.4458 35.3006C30.6007 35.3006 28.8351 34.959 27.2087 34.3355ZM25.4389 8.9357C27.4861 7.70685 29.8826 7 32.4458 7C39.9904 7 46.09 13.1113 46.09 20.6442C46.09 32.8265 37.3817 40.0993 31.8769 43.4849C31.8092 43.5264 31.7601 43.527 31.7251 43.5198C31.6829 43.5111 31.6348 43.4843 31.5952 43.4375C31.5557 43.3908 31.5369 43.3385 31.5352 43.2943C31.5338 43.2572 31.5429 43.2069 31.5966 43.1447L31.5982 43.1429C33.3559 41.086 35.4054 38.151 36.794 34.4354C36.8602 34.2583 36.8208 34.059 36.6923 33.9204C36.5637 33.7818 36.368 33.7275 36.1864 33.7802C35.0053 34.1227 33.7508 34.3006 32.4458 34.3006C30.7963 34.3006 29.2149 34.0075 27.751 33.4706C29.85 29.9756 31.3006 25.7232 31.3006 20.6442C31.3006 20.6055 31.2962 20.5678 31.2879 20.5317C31.2522 15.7925 28.9628 11.5874 25.4389 8.9357ZM24.5453 9.52085C28.0206 11.9945 30.2883 16.0557 30.2883 20.6442C30.2883 20.6818 30.2925 20.7185 30.3004 20.7537C30.2794 25.6337 28.8601 29.7226 26.8136 33.0865C22.0891 30.9412 18.8017 26.181 18.8017 20.6564C18.8017 16.065 21.0676 11.9976 24.5453 9.52085Z" fill="#A3131D"/>
</svg>
