<?xml version="1.0" encoding="utf-8"?>
<!-- Generator: Adobe Illustrator 26.5.0, SVG Export Plug-In . SVG Version: 6.00 Build 0)  -->
<svg version="1.1" xmlns="http://www.w3.org/2000/svg" xmlns:xlink="http://www.w3.org/1999/xlink" x="0px" y="0px"
	 viewBox="0 0 250 250" style="enable-background:new 0 0 250 250;" xml:space="preserve">
<style type="text/css">
	.st0{display:none;fill:none;stroke:#000000;stroke-width:9;stroke-linecap:round;stroke-linejoin:round;stroke-miterlimit:10;}
	.st1{fill:none;stroke:#000000;stroke-width:9;stroke-linecap:round;stroke-linejoin:round;stroke-miterlimit:10;}
	.st2{display:none;}
</style>
<g id="Calque_2">
</g>
<g id="Calque_3">
	<polygon class="st0" points="55.2,68.9 39.7,84.3 39.7,238.4 166.9,238.4 166.9,68.9 	"/>
	<line class="st1" x1="136.1" y1="130" x2="70.6" y2="130"/>
	<line class="st1" x1="136.1" y1="155.8" x2="70.6" y2="155.8"/>
	<line class="st1" x1="135.4" y1="192.4" x2="89.1" y2="192.4"/>
	<polyline class="st1" points="163.3,200.1 163.3,233.7 40.3,233.7 40.3,62.1 163.3,62.2 163.3,200.6 	"/>
	<path class="st2" d="M173.8,46.6h-50.9c-0.3,0-0.6,0.3-0.6,0.6s0.3,0.6,0.6,0.6h50.3v29.3c0,0.3,0.3,0.6,0.6,0.6s0.6-0.3,0.6-0.6
		V47.2C174.4,46.9,174.2,46.6,173.8,46.6z"/>
	<polyline class="st1" points="87.5,39.7 184.2,39.7 184.2,206.2 	"/>
</g>
</svg>
