<?xml version="1.0" encoding="utf-8"?>
<!-- Generator: Adobe Illustrator 26.5.0, SVG Export Plug-In . SVG Version: 6.00 Build 0)  -->
<svg version="1.1" id="Calque_3" xmlns="http://www.w3.org/2000/svg" xmlns:xlink="http://www.w3.org/1999/xlink" x="0px" y="0px"
	 viewBox="0 0 250 250" style="enable-background:new 0 0 250 250;" xml:space="preserve">
<style type="text/css">
	.st0{fill:#FFFFFF;}
</style>
<g>
	<path d="M234.1,215L189.2,53.2l-38.7,10.8l4.3,15.4h-17.5V57.9l-40.2,0v15.9H79.3v-35l-54.2,0l0,187l137,0v-120l33.3,119.9
		L234.1,215z M104.7,65.6h24.8v44.2l-24.8,0V65.6z M104.7,116.6h24.8v101.5h-24.8L104.7,116.6z M72.5,217.8l-40.7,0l0-156.5l40.7,0
		V217.8z M71.6,46.4v7.2l-40.7,0v-7.2L71.6,46.4z M154.4,218.1h-17.2V87h17.2V218.1z M200.7,216.2l-27.1-97.6l23.9-6.6l27.1,97.6
		L200.7,216.2z M171.6,111.2l-2.1-7.6l23.9-6.6l2.1,7.6L171.6,111.2z M183.8,62.6l7.5,26.9l-23.9,6.6l-7.5-26.9L183.8,62.6z
		 M183.8,62.6"/>
</g>
<rect x="79.9" y="81.4" class="st0" width="17.1" height="136.6"/>
</svg>
