<svg xmlns="http://www.w3.org/2000/svg" xmlns:xlink="http://www.w3.org/1999/xlink" width="666" height="336" aria-hidden="true" focusable="false"><defs><path id="a" d="M0 .722h163.821V35.94H0z"/><path id="c" d="M.981.722h70.915V35.94H.981z"/><path id="e" d="M.381.722h52.942V35.94H.381z"/></defs><g fill="none" fill-rule="evenodd"><g transform="translate(0 300)"><mask id="b" fill="#fff"><use xlink:href="#a"/></mask><path fill="#004aae" d="M28.874 21.295C28.874 30.427 22.689 36 14.445 36 6.136 36 0 30.427 0 21.295V1.341h6.96v20.472c0 5.112 3.253 7.736 7.485 7.736 4.271 0 7.468-2.624 7.468-7.736V1.341h6.961v19.954M80.872 1.341V36h-2.33L58.845 14.956v20.425h-6.949V.722h2.265l19.75 20.888V1.341h6.961M104.143 35.381h6.96V1.341h-6.96zM163.821 1.341 148.664 36h-2.339L131.122 1.341h7.883l8.522 20.628 8.456-20.628h7.838" mask="url(#b)"/></g><path fill="#004aae" d="M206.844 307.635h-15.952v6.905h11.737v5.932h-11.737v8.615h16.571v6.294h-23.522v-34.04h22.903v6.294"/><g transform="translate(228 300)"><mask id="d" fill="#fff"><use xlink:href="#c"/></mask><path fill="#004aae" d="M7.939 17.228h5.823c3.255 0 5.157-1.959 5.157-4.897 0-2.847-1.902-4.853-5.157-4.853H7.939v9.75zm13.929 18.153L13.05 23.365H7.939v12.016H.981V1.341h12.781c7.172 0 12.275 4.335 12.275 10.99 0 4.381-2.32 7.836-5.991 9.638l9.659 13.412h-7.837zM71.129 7.173l-4.759 3.66c-1.646-2.477-3.705-3.918-6.489-3.918-2.273 0-4.232 1.025-4.232 3.29 0 1.967 1.497 2.791 3.975 3.927l3.872 1.71c5.369 2.368 8.4 5.101 8.4 9.945 0 6.35-5.157 10.213-11.913 10.213-5.887 0-10.619-2.994-13.143-7.522l4.78-3.615c1.866 2.579 4.288 4.944 8.363 4.944 2.986 0 4.853-1.387 4.853-3.762 0-2.218-1.655-2.995-4.336-4.232l-3.659-1.646c-4.843-2.217-8.244-5.008-8.244-9.796 0-5.888 4.889-9.649 11.284-9.649 5.417 0 9.234 2.735 11.248 6.451" mask="url(#d)"/></g><path fill="#004aae" d="M321.505 335.381h6.978v-34.04h-6.978zM377.33 307.635h-10.942v27.746h-6.962v-27.746h-10.877v-6.294h28.781v6.294M418.07 289.686l-7.052 8.356h-5.056l3.697-9.594h8.411v1.238zm2.236 17.949h-15.943v6.905h11.692v5.932h-11.692v8.615h16.553v6.294h-23.53v-34.04h22.92v6.294zm59.004-.157v9.797h5.832c3.244 0 5.156-2.006 5.156-4.944 0-2.847-1.912-4.853-5.156-4.853h-5.832zm18.106 4.853c0 6.543-5.102 11.034-12.274 11.034h-5.832v12.016h-6.95v-34.04h12.782c7.172 0 12.274 4.335 12.274 10.99zm30.019 1.441-4.501 11.452h8.994l-4.493-11.452zm6.969 17.173h-13.928l-1.914 4.436h-7.476l15.222-34.659h2.31l15.167 34.659h-7.477l-1.904-4.436zm36.471-13.717h5.822c3.253 0 5.148-1.959 5.148-4.897 0-2.847-1.895-4.853-5.148-4.853h-5.822v9.75zm13.91 18.153-8.81-12.016h-5.1v12.016h-6.979v-34.04h12.801c7.163 0 12.264 4.335 12.264 10.99 0 4.381-2.3 7.836-5.97 9.638l9.648 13.412h-7.854z"/><g transform="translate(612 300)"><mask id="f" fill="#fff"><use xlink:href="#e"/></mask><path fill="#004aae" mask="url(#f)" d="M.381 35.381H7.36V1.341H.381zM52.546 7.173l-4.751 3.66c-1.644-2.477-3.696-3.918-6.505-3.918-2.257 0-4.215 1.025-4.215 3.29 0 1.967 1.496 2.791 3.965 3.927l3.881 1.71c5.351 2.368 8.402 5.101 8.402 9.945 0 6.35-5.158 10.213-11.914 10.213-5.887 0-10.629-2.994-13.153-7.522l4.806-3.615c1.831 2.579 4.251 4.944 8.347 4.944 2.986 0 4.844-1.387 4.844-3.762 0-2.218-1.655-2.995-4.335-4.232l-3.662-1.646c-4.85-2.217-8.253-5.008-8.253-9.796 0-5.888 4.89-9.649 11.287-9.649 5.416 0 9.249 2.735 11.256 6.451"/></g><path fill="#004aae" d="m468.026 65.318 92.266 92.305.36-.357-92.285-92.294-.341.346M468.237 163.154v.503l92.905-.092v-.508l-92.905.097M508.813 241.876a59.918 59.918 0 0 0-2.516 17.181c0 .795.027 1.609.055 2.403h.991a68.735 68.735 0 0 1-.038-2.403c0-5.712.805-11.248 2.319-16.488m112.759 0a59.347 59.347 0 0 1 2.347 16.488c0 .814-.038 1.609-.073 2.403h.988c.036-.794.064-1.589.064-2.403a60.82 60.82 0 0 0-2.329-16.673M468.367 261.599l-.341-.35 94.845-94.866.369.352-94.873 94.864M663.639 260.999l-87.228-87.24.369-.36 87.212 87.238-.353.362M571.169 163.565l93.265.092v-.494l-93.265-.101v.503M565.958 261.46h.508v-61.116h-.508z"/><g fill="#004aae"><path d="M467.573 262.135h197.528V64.592H467.573v197.543Zm1.718-1.71H663.41V66.284H469.291v194.141Z"/><path d="M566.225 261.155h-.009c-20.269 0-39.779-6.22-56.37-17.947-21.33-15.084-35.527-37.577-39.981-63.325-4.409-25.759 1.468-51.703 16.534-73.044 18.31-25.911 48.218-41.377 79.992-41.377 20.27 0 39.77 6.21 56.38 17.953 21.341 15.084 35.536 37.575 39.944 63.324 4.437 25.75-1.431 51.688-16.515 73.038-18.3 25.897-48.218 41.378-79.975 41.378m.166-193.984c-31.22 0-60.6 15.208-78.597 40.658-14.825 20.966-20.573 46.447-16.22 71.758 4.336 25.304 18.271 47.398 39.243 62.223 16.322 11.544 35.482 17.636 55.399 17.636h.009c31.203 0 60.584-15.195 78.561-40.649 14.842-20.98 20.61-46.46 16.249-71.767-4.345-25.301-18.282-47.408-39.255-62.233-16.321-11.53-35.463-17.626-55.389-17.626"/></g><path fill="#004aae" d="M614.803 115.685c14.9 0 28.218 6.871 36.97 17.602h1.267c-8.928-11.318-22.727-18.605-38.237-18.605-11.349 0-21.775 3.928-30.056 10.453l.323 1.017c8.153-6.539 18.476-10.467 29.733-10.467m-1.765 96.273c.583.018 1.184.038 1.765.038 26.83 0 48.662-21.817 48.662-48.649 0-10.314-3.226-19.903-8.753-27.778l-.794.588c5.387 7.717 8.559 17.084 8.559 27.19 0 26.277-21.38 47.658-47.674 47.658-.703 0-1.386-.027-2.098-.054m45.176-77.664h-4.841a76.632 76.632 0 0 1 1.691 2.282l3.15-2.282"/><path fill="#004aae" d="m653.918 136.157.794-.588a49.537 49.537 0 0 0-1.672-2.282h-1.267a41.89 41.89 0 0 1 2.145 2.87m-40.909 75.755c-.092-.305-.202-.601-.276-.897l.276.897m7.949 23.789-7.92-23.743a48.606 48.606 0 0 1-13.89-2.569c9.592 6.433 17.236 15.565 21.81 26.312"/><path fill="#004aae" d="m587.298 133.287-2.228-7.135c-10.914 8.747-17.92 22.163-17.92 37.187 0 25.573 20.268 46.494 45.555 47.612l-12.042-36.083 53.255-38.716a47.359 47.359 0 0 0-2.145-2.865h-64.475"/><path fill="#004aae" d="M566.014 199.346a59.533 59.533 0 0 1 20.748 3.716c-12.449-8.817-20.61-23.332-20.61-39.715 0-15.481 7.283-29.293 18.595-38.212l-18.522-58.676-21.386 66.828h-69.798l56.451 41.281-20.37 60.976c9.132-21.275 30.269-36.198 54.892-36.198"/><path fill="#004aae" d="m622.771 241.164-.685.491c-7.392-23.931-29.723-41.318-56.064-41.318-26.23 0-48.458 17.204-55.99 40.937l-.629-.508-.481 1.415 57.294-41.837 57.045 42.225-.49-1.405m-113.57-.536.202.138 1.719-5.222a67.005 67.005 0 0 0-1.921 5.084m113.736.416a56.317 56.317 0 0 0-1.979-5.343l1.813 5.463.166-.12M573.397 155.847l.361.361 91.029-91.005-.353-.351-91.037 90.995M129.966 121.831c0 33.517-23.642 57.742-61.62 57.742h-45v82.553H.582V64.717h67.764c37.978 0 61.62 23.925 61.62 57.114M23.346 85.656v72.973h44.419c25.416 0 38.559-15.245 38.559-36.488 0-20.939-13.143-36.485-38.559-36.485H23.346m252.632 9.271-16.645 12.85c-10.232-15.85-26.609-24.815-44.124-24.815-17.81 0-34.179 9.261-34.179 28.707 0 17.954 13.429 24.529 30.972 33.204l21.312 10.475c28.06 13.748 44.975 28.407 44.975 55.039 0 33.19-26.554 55.029-62.203 55.029-30.655 0-56.082-16.452-70.981-42.479l16.96-12.865c11.674 18.254 28.901 33.8 53.735 33.8 22.773 0 38.866-12.856 38.866-32.894 0-18.254-13.171-25.425-32.165-34.695l-21.608-10.472c-22.487-11.068-43.523-25.126-43.523-52.941 0-31.396 26.868-51.452 58.135-51.452 26.275 0 48.486 14.062 60.473 33.509M318.761 64.717v197.409h114.218v-20.943h-91.436V64.717h-22.782"/><path fill="#004aae" fill-rule="nonzero" d="M1 39V14.384h3.563c.755 0 1.25.36 1.486 1.08l.378 1.823c.424-.48.869-.92 1.333-1.32.464-.4.96-.743 1.486-1.031a7.973 7.973 0 0 1 1.7-.684A7.445 7.445 0 0 1 12.938 14c1.526 0 2.78.42 3.763 1.26.983.84 1.719 1.955 2.206 3.347a7.517 7.517 0 0 1 1.416-2.1 7.751 7.751 0 0 1 1.864-1.427 8.489 8.489 0 0 1 2.159-.816c.763-.176 1.53-.264 2.3-.264 1.338 0 2.525.208 3.563.624a6.832 6.832 0 0 1 2.62 1.823c.707.8 1.246 1.776 1.616 2.927.37 1.152.554 2.471.554 3.959V39h-5.828V23.333c0-1.567-.338-2.747-1.014-3.539-.677-.792-1.668-1.187-2.973-1.187-.598 0-1.153.103-1.664.311-.511.208-.96.508-1.345.9s-.688.884-.908 1.476c-.22.591-.33 1.271-.33 2.039V39h-5.852V23.333c0-1.647-.326-2.847-.98-3.599-.652-.752-1.615-1.127-2.89-1.127-.833 0-1.616.211-2.347.635-.732.424-1.412 1.004-2.041 1.74V39H1Zm49.575-25c1.519 0 2.916.244 4.191.733a9.17 9.17 0 0 1 3.3 2.14c.923.939 1.643 2.09 2.16 3.454.516 1.364.774 2.92.774 4.671 0 .442-.02.808-.059 1.1-.039.292-.11.52-.211.686a.857.857 0 0 1-.41.355 1.74 1.74 0 0 1-.658.106H44.776c.172 2.491.837 4.32 1.996 5.487 1.158 1.167 2.692 1.75 4.602 1.75.939 0 1.749-.11 2.43-.33.68-.221 1.275-.466 1.784-.734a41.38 41.38 0 0 0 1.338-.733c.384-.22.756-.331 1.116-.331.234 0 .438.047.61.142.172.094.321.228.446.402l1.69 2.128a9.687 9.687 0 0 1-2.16 1.904c-.798.513-1.631.923-2.5 1.23-.869.308-1.753.525-2.653.65-.9.127-1.773.19-2.618.19-1.675 0-3.232-.28-4.672-.84a10.453 10.453 0 0 1-3.757-2.483c-1.064-1.096-1.902-2.452-2.512-4.068-.61-1.616-.916-3.489-.916-5.618 0-1.655.266-3.212.798-4.67.532-1.46 1.296-2.729 2.29-3.809.993-1.08 2.207-1.935 3.639-2.566 1.432-.63 3.048-.946 4.848-.946Zm.28 4c-1.706 0-3.042.521-4.006 1.564C45.885 20.607 45.27 22.085 45 24h11c0-.82-.103-1.594-.308-2.32a5.503 5.503 0 0 0-.948-1.91 4.534 4.534 0 0 0-1.613-1.296c-.648-.316-1.406-.474-2.275-.474ZM67 39V14.384h3.563c.755 0 1.25.36 1.486 1.08l.378 1.823c.424-.48.869-.92 1.333-1.32.464-.4.96-.743 1.486-1.031a7.973 7.973 0 0 1 1.7-.684A7.445 7.445 0 0 1 78.938 14c1.526 0 2.78.42 3.763 1.26.983.84 1.719 1.955 2.206 3.347a7.517 7.517 0 0 1 1.416-2.1 7.751 7.751 0 0 1 1.864-1.427 8.489 8.489 0 0 1 2.159-.816c.763-.176 1.53-.264 2.3-.264 1.338 0 2.525.208 3.563.624a6.832 6.832 0 0 1 2.62 1.823c.707.8 1.246 1.776 1.616 2.927.37 1.152.554 2.471.554 3.959V39h-5.828V23.333c0-1.567-.338-2.747-1.014-3.539-.677-.792-1.668-1.187-2.973-1.187-.598 0-1.153.103-1.664.311-.511.208-.96.508-1.345.9s-.688.884-.908 1.476c-.22.591-.33 1.271-.33 2.039V39h-5.852V23.333c0-1.647-.326-2.847-.98-3.599-.652-.752-1.615-1.127-2.89-1.127-.833 0-1.616.211-2.347.635-.732.424-1.412 1.004-2.041 1.74V39H67Zm39-.36V3h6.018v14.055a11.849 11.849 0 0 1 3.362-2.483c1.251-.615 2.713-.923 4.386-.923 1.364 0 2.61.276 3.74.827 1.129.552 2.103 1.355 2.924 2.41.82 1.056 1.453 2.36 1.9 3.91.447 1.551.67 3.334.67 5.349 0 1.838-.252 3.541-.755 5.108-.504 1.567-1.223 2.926-2.157 4.077a9.933 9.933 0 0 1-3.386 2.699c-1.324.647-2.806.971-4.447.971a8.988 8.988 0 0 1-2.095-.228 7.482 7.482 0 0 1-1.73-.635 7.376 7.376 0 0 1-1.45-.996 12.33 12.33 0 0 1-1.279-1.307l-.268 1.655c-.097.416-.264.712-.5.887-.235.176-.556.264-.962.264H106ZM117.799 19c-1.278 0-2.369.256-3.273.768-.904.512-1.746 1.233-2.526 2.163v10.871c.697.82 1.456 1.39 2.277 1.714a7.246 7.246 0 0 0 2.675.484c.93 0 1.767-.165 2.514-.496a4.875 4.875 0 0 0 1.904-1.513c.523-.677.925-1.532 1.207-2.564.282-1.032.423-2.25.423-3.652 0-1.418-.12-2.619-.36-3.604-.241-.984-.586-1.784-1.034-2.398-.448-.615-.991-1.064-1.63-1.348-.639-.283-1.364-.425-2.177-.425ZM134 39V14.455h3.547c.62 0 1.052.111 1.297.334.245.224.408.607.49 1.149l.366 2.966c.897-1.515 1.95-2.711 3.156-3.588A6.74 6.74 0 0 1 146.917 14c1.24 0 2.268.28 3.083.837l-.783 4.426c-.049.287-.155.49-.318.61s-.383.18-.66.18c-.245 0-.58-.056-1.004-.168-.424-.111-.986-.167-1.688-.167-1.255 0-2.332.339-3.229 1.016-.897.678-1.655 1.671-2.275 2.979V39H134Zm29.575-25c1.519 0 2.916.244 4.191.733a9.17 9.17 0 0 1 3.3 2.14c.923.939 1.643 2.09 2.16 3.454.516 1.364.774 2.92.774 4.671 0 .442-.02.808-.059 1.1-.039.292-.11.52-.211.686a.857.857 0 0 1-.41.355 1.74 1.74 0 0 1-.658.106h-14.886c.172 2.491.837 4.32 1.996 5.487 1.158 1.167 2.692 1.75 4.602 1.75.939 0 1.749-.11 2.43-.33.68-.221 1.275-.466 1.784-.734a41.38 41.38 0 0 0 1.338-.733c.384-.22.756-.331 1.116-.331.234 0 .438.047.61.142.172.094.321.228.446.402l1.69 2.128a9.687 9.687 0 0 1-2.16 1.904c-.798.513-1.631.923-2.5 1.23-.869.308-1.753.525-2.653.65-.9.127-1.773.19-2.618.19-1.675 0-3.232-.28-4.672-.84a10.453 10.453 0 0 1-3.757-2.483c-1.064-1.096-1.902-2.452-2.512-4.068-.61-1.616-.916-3.489-.916-5.618 0-1.655.266-3.212.798-4.67.532-1.46 1.296-2.729 2.29-3.809.993-1.08 2.207-1.935 3.639-2.566 1.432-.63 3.048-.946 4.848-.946Zm.28 4c-1.706 0-3.042.521-4.006 1.564-.964 1.043-1.58 2.521-1.849 4.436h11c0-.82-.103-1.594-.308-2.32a5.503 5.503 0 0 0-.948-1.91 4.534 4.534 0 0 0-1.613-1.296c-.648-.316-1.406-.474-2.275-.474ZM207 38.623h-2.596c-.546 0-.975-.082-1.287-.247-.312-.165-.546-.5-.702-1.002l-.514-1.72a19.843 19.843 0 0 1-1.79 1.45c-.585.415-1.189.765-1.813 1.048a9.199 9.199 0 0 1-1.988.636c-.702.141-1.482.212-2.34.212-1.013 0-1.949-.137-2.806-.412-.858-.275-1.595-.688-2.21-1.237a5.617 5.617 0 0 1-1.44-2.05c-.342-.817-.514-1.768-.514-2.851 0-.912.238-1.81.713-2.698.476-.888 1.268-1.689 2.375-2.404 1.107-.714 2.58-1.307 4.42-1.779 1.84-.471 4.126-.738 6.855-.8v-1.415c0-1.618-.34-2.815-1.018-3.593-.678-.777-1.665-1.166-2.959-1.166-.936 0-1.715.11-2.34.33a9.018 9.018 0 0 0-1.625.742c-.46.275-.885.522-1.275.742-.39.22-.819.33-1.286.33-.39 0-.725-.102-1.006-.306a2.405 2.405 0 0 1-.679-.754l-1.052-1.862c2.76-2.545 6.09-3.817 9.988-3.817 1.404 0 2.655.232 3.754.695 1.1.464 2.032 1.108 2.796 1.932.764.825 1.345 1.81 1.743 2.957.397 1.147.596 2.404.596 3.77v15.269ZM195.31 35c.603 0 1.158-.058 1.666-.173a6.171 6.171 0 0 0 1.44-.517c.453-.23.89-.514 1.31-.85.42-.337.845-.736 1.274-1.196V28c-1.714.082-3.147.234-4.298.456-1.15.222-2.075.505-2.773.85-.699.345-1.195.748-1.489 1.208a2.74 2.74 0 0 0-.44 1.504c0 1.068.306 1.832.917 2.292.61.46 1.408.69 2.393.69Zm32.116-15.896c-.157.252-.322.43-.494.532-.172.102-.392.153-.658.153-.282 0-.583-.079-.905-.236a61.615 61.615 0 0 0-1.116-.532 10.187 10.187 0 0 0-1.445-.531c-.54-.158-1.179-.237-1.915-.237-1.144 0-2.044.244-2.702.733-.658.488-.987 1.126-.987 1.914 0 .52.168.957.505 1.311.337.355.783.666 1.34.934.555.267 1.186.508 1.89.72a61.71 61.71 0 0 1 2.163.697c.736.252 1.457.54 2.162.863a7.533 7.533 0 0 1 1.891 1.229 5.705 5.705 0 0 1 1.34 1.784c.337.693.505 1.528.505 2.504 0 1.166-.211 2.241-.634 3.226a7.089 7.089 0 0 1-1.857 2.552c-.814.717-1.821 1.276-3.02 1.677-1.198.402-2.573.603-4.123.603-.83 0-1.641-.075-2.433-.224-.79-.15-1.55-.359-2.279-.627a12.582 12.582 0 0 1-2.02-.945A9.81 9.81 0 0 1 211 36.023l1.34-2.221a1.9 1.9 0 0 1 .61-.615c.235-.142.533-.213.893-.213s.701.103 1.023.308c.32.204.693.425 1.116.661.423.237.92.457 1.492.662.572.205 1.296.307 2.174.307.689 0 1.28-.083 1.774-.248.493-.165.9-.382 1.222-.65.32-.268.556-.579.705-.933.148-.355.223-.72.223-1.099 0-.567-.169-1.032-.505-1.394-.337-.362-.784-.677-1.34-.945a12.892 12.892 0 0 0-1.903-.721 62.636 62.636 0 0 1-2.186-.697 20.152 20.152 0 0 1-2.185-.886 7.446 7.446 0 0 1-1.903-1.288 5.828 5.828 0 0 1-1.34-1.914c-.337-.756-.505-1.67-.505-2.741 0-.992.196-1.938.587-2.836a6.649 6.649 0 0 1 1.728-2.35c.76-.67 1.707-1.206 2.843-1.607 1.136-.402 2.448-.603 3.936-.603 1.66 0 3.172.276 4.535.827 1.363.551 2.499 1.276 3.408 2.174l-1.316 2.103Zm21 0c-.157.252-.322.43-.494.532-.172.102-.392.153-.658.153-.282 0-.583-.079-.905-.236a61.615 61.615 0 0 0-1.116-.532 10.187 10.187 0 0 0-1.445-.531c-.54-.158-1.179-.237-1.915-.237-1.144 0-2.044.244-2.702.733-.658.488-.987 1.126-.987 1.914 0 .52.168.957.505 1.311.337.355.783.666 1.34.934.555.267 1.186.508 1.89.72a61.71 61.71 0 0 1 2.163.697c.736.252 1.457.54 2.162.863a7.533 7.533 0 0 1 1.891 1.229 5.705 5.705 0 0 1 1.34 1.784c.337.693.505 1.528.505 2.504 0 1.166-.211 2.241-.634 3.226a7.089 7.089 0 0 1-1.857 2.552c-.814.717-1.821 1.276-3.02 1.677-1.198.402-2.573.603-4.123.603-.83 0-1.641-.075-2.433-.224-.79-.15-1.55-.359-2.279-.627a12.582 12.582 0 0 1-2.02-.945A9.81 9.81 0 0 1 232 36.023l1.34-2.221a1.9 1.9 0 0 1 .61-.615c.235-.142.533-.213.893-.213s.701.103 1.023.308c.32.204.693.425 1.116.661.423.237.92.457 1.492.662.572.205 1.296.307 2.174.307.689 0 1.28-.083 1.774-.248.493-.165.9-.382 1.222-.65.32-.268.556-.579.705-.933.148-.355.223-.72.223-1.099 0-.567-.169-1.032-.505-1.394-.337-.362-.784-.677-1.34-.945a12.892 12.892 0 0 0-1.903-.721 62.636 62.636 0 0 1-2.186-.697 20.152 20.152 0 0 1-2.185-.886 7.446 7.446 0 0 1-1.903-1.288 5.828 5.828 0 0 1-1.34-1.914c-.337-.756-.505-1.67-.505-2.741 0-.992.196-1.938.587-2.836a6.649 6.649 0 0 1 1.728-2.35c.76-.67 1.707-1.206 2.843-1.607 1.136-.402 2.448-.603 3.936-.603 1.66 0 3.172.276 4.535.827 1.363.551 2.499 1.276 3.408 2.174l-1.316 2.103ZM265.036 14c1.812 0 3.456.292 4.93.875 1.473.584 2.73 1.411 3.77 2.484 1.041 1.072 1.845 2.38 2.413 3.926.567 1.545.851 3.272.851 5.18 0 1.923-.284 3.658-.851 5.203-.568 1.545-1.372 2.862-2.412 3.95-1.04 1.088-2.298 1.923-3.771 2.507-1.474.583-3.118.875-4.93.875-1.813 0-3.46-.292-4.942-.875-1.482-.584-2.747-1.42-3.795-2.507-1.049-1.088-1.86-2.405-2.436-3.95-.575-1.545-.863-3.28-.863-5.203 0-1.908.288-3.635.863-5.18s1.387-2.854 2.436-3.926c1.048-1.073 2.313-1.9 3.795-2.484 1.481-.583 3.129-.875 4.941-.875Zm0 21c2.027 0 3.528-.676 4.503-2.03.974-1.353 1.461-3.335 1.461-5.946 0-2.612-.487-4.602-1.461-5.97-.975-1.37-2.476-2.054-4.503-2.054-2.06 0-3.58.688-4.563 2.065-.982 1.377-1.473 3.363-1.473 5.959 0 2.595.491 4.574 1.473 5.935.982 1.36 2.503 2.041 4.563 2.041Zm34.143-15.49a2.95 2.95 0 0 1-.522.521c-.17.126-.417.19-.74.19a1.68 1.68 0 0 1-.899-.273c-.29-.18-.639-.386-1.043-.615a7.911 7.911 0 0 0-1.445-.614c-.558-.182-1.25-.272-2.076-.272-1.052 0-1.974.185-2.767.555a5.218 5.218 0 0 0-1.979 1.597c-.526.694-.918 1.533-1.177 2.519-.26.985-.389 2.1-.389 3.347 0 1.292.142 2.444.425 3.453.283 1.009.692 1.856 1.226 2.542a5.248 5.248 0 0 0 1.942 1.561c.761.355 1.619.532 2.574.532.955 0 1.727-.114 2.318-.342a7.385 7.385 0 0 0 1.493-.757c.405-.276.757-.529 1.056-.757.3-.229.636-.343 1.008-.343.485 0 .85.181 1.092.544L301 35.026a10.748 10.748 0 0 1-2.16 1.904c-.778.513-1.583.923-2.416 1.23-.834.308-1.696.525-2.586.65-.89.127-1.772.19-2.646.19-1.538 0-2.986-.28-4.346-.84a10.148 10.148 0 0 1-3.556-2.448c-1.012-1.072-1.813-2.384-2.404-3.938-.59-1.553-.886-3.323-.886-5.31 0-1.781.263-3.433.789-4.955.526-1.521 1.299-2.838 2.319-3.95 1.02-1.111 2.282-1.982 3.787-2.613 1.505-.63 3.237-.946 5.195-.946 1.861 0 3.492.292 4.892.875 1.4.584 2.658 1.42 3.775 2.507l-1.578 2.129ZM311 14v25h-6V14h6Zm1-6.962c0 .546-.11 1.057-.33 1.534-.219.477-.51.894-.873 1.252a4.172 4.172 0 0 1-1.278.857 3.89 3.89 0 0 1-1.57.319 3.74 3.74 0 0 1-1.531-.32 4.055 4.055 0 0 1-2.102-2.108A3.75 3.75 0 0 1 304 7.038c0-.562.105-1.09.316-1.584.211-.494.494-.92.849-1.278a4.055 4.055 0 0 1 1.253-.857A3.74 3.74 0 0 1 307.949 3c.557 0 1.08.106 1.57.32.49.212.916.498 1.278.856.363.358.654.784.874 1.278.22.494.329 1.022.329 1.584ZM327.575 14c1.519 0 2.916.244 4.191.733a9.17 9.17 0 0 1 3.3 2.14c.923.939 1.643 2.09 2.16 3.454.516 1.364.774 2.92.774 4.671 0 .442-.02.808-.059 1.1-.039.292-.11.52-.211.686a.857.857 0 0 1-.41.355 1.74 1.74 0 0 1-.658.106h-14.886c.172 2.491.837 4.32 1.996 5.487 1.158 1.167 2.692 1.75 4.602 1.75.939 0 1.749-.11 2.43-.33.68-.221 1.275-.466 1.784-.734a41.38 41.38 0 0 0 1.338-.733c.384-.22.756-.331 1.116-.331.234 0 .438.047.61.142.172.094.321.228.446.402l1.69 2.128a9.687 9.687 0 0 1-2.16 1.904c-.798.513-1.631.923-2.5 1.23-.869.308-1.753.525-2.653.65-.9.127-1.773.19-2.618.19-1.675 0-3.232-.28-4.672-.84a10.453 10.453 0 0 1-3.757-2.483c-1.064-1.096-1.902-2.452-2.512-4.068-.61-1.616-.916-3.489-.916-5.618 0-1.655.266-3.212.798-4.67.532-1.46 1.296-2.729 2.29-3.809.993-1.08 2.207-1.935 3.639-2.566 1.432-.63 3.048-.946 4.848-.946Zm.28 4c-1.706 0-3.042.521-4.006 1.564-.964 1.043-1.58 2.521-1.849 4.436h11c0-.82-.103-1.594-.308-2.32a5.503 5.503 0 0 0-.948-1.91 4.534 4.534 0 0 0-1.613-1.296c-.648-.316-1.406-.474-2.275-.474ZM336 4l-5.696 6.172c-.292.316-.573.532-.842.65-.269.119-.619.178-1.049.178H325l3.275-5.747c.23-.41.5-.72.807-.934.307-.213.768-.319 1.383-.319H336Z"/></g></svg>