<?xml version="1.0" encoding="utf-8"?>
<!-- Generator: Adobe Illustrator 25.2.3, SVG Export Plug-In . SVG Version: 6.00 Build 0)  -->
<svg version="1.1" id="Calque_1" xmlns="http://www.w3.org/2000/svg" xmlns:xlink="http://www.w3.org/1999/xlink" x="0px" y="0px"
	 viewBox="0 0 800 800" style="enable-background:new 0 0 800 800;" xml:space="preserve">
<style type="text/css">
	.st0{fill:#020203;}
</style>
<path class="st0" d="M716.6,385.5c-29.6-7.6-93.6-19.2-110.5-22.3c-19.3-19.4-123.3-119.1-215.3-119.1c-15.8,0-43.5,1.1-70.4,2.2
	c-25.2,1-49,2-61.5,2c-77.9,0-129,62.7-153.5,92.8c-3.3,4-6.9,8.5-9.1,10.9c-18.5,0.3-61.1,2-63.1,2.1l-7.9,0.3l-3.4,7.3
	c-0.7,1.5-17.5,38.5-17.5,88.6c0,49.1,0,123.2,65.1,123.2h36.6c6.4,34.8,36.3,61.2,72.1,61.2c36.8,0,67.2-27.8,72.5-63.9v2.8h273.3
	c6.4,34.8,36.3,61.2,72.1,61.2c36.1,0,66-26.7,72.2-61.8c12.9-0.6,36-1.5,63.2-1.5c48.5,0,52.3-22.2,58.2-55.8
	c1.4-7.9,2.9-16.9,5.3-27.1l0.3-1.5v-1.5C795.5,437.7,754.7,395.2,716.6,385.5z M178.3,607.9c-26.1,0-47.3-21.7-47.3-48.3
	s21.2-48.3,47.3-48.3c26.1,0,47.3,21.7,47.3,48.3S204.4,607.9,178.3,607.9z M596.3,607.9c-26.1,0-47.3-21.7-47.3-48.3
	s21.2-48.3,47.3-48.3c26.1,0,47.3,21.7,47.3,48.3S622.3,607.9,596.3,607.9z M764.1,510.9c-5.6,31.9-5.9,33.8-32.5,33.8
	c-27.1,0-49.9,0.8-63.2,1.4c-6.2-35-36.2-61.6-72.2-61.6c-36.2,0-66.3,26.9-72.3,62.2H250.9v1.7c-5.3-36.1-35.7-63.9-72.5-63.9
	c-36.2,0-66.3,26.9-72.3,62.2H69.6c-36.1,0-39-41.8-39-96.5c0-31.7,7.8-57.8,12.1-69.9c15.1-0.6,46.4-1.7,57.6-1.7
	c8.6,0,13.8-6.4,25.3-20.5c22-27,67.7-83.2,133.4-83.2c13,0,37.1-1,62.5-2c26.6-1.1,54.1-2.2,69.3-2.2c63,0,136.6,57,174.4,90.4
	h-173v-47.8h-26.1v47.8h-89.8c-49.8,0-58.4-35.9-59.2-39.8l-25.7,4.8c3.8,21.4,26.5,61.7,84.9,61.7h317.1l0.1,0.1l4.1,0.7
	c0.8,0.1,80.1,14.3,112.7,22.6c27.5,7,58.2,39.4,59.1,72.7C767,494.3,765.5,503.1,764.1,510.9z"/>
</svg>
