<?xml version="1.0" encoding="utf-8"?>
<!-- Generator: Adobe Illustrator 25.2.3, SVG Export Plug-In . SVG Version: 6.00 Build 0)  -->
<svg version="1.1" id="Calque_1" xmlns="http://www.w3.org/2000/svg" xmlns:xlink="http://www.w3.org/1999/xlink" x="0px" y="0px"
	 viewBox="0 0 800 800" style="enable-background:new 0 0 800 800;" xml:space="preserve">
<style type="text/css">
	.st0{fill:none;stroke:#020203;stroke-width:26;stroke-linejoin:round;stroke-miterlimit:10;}
	.st1{fill:none;stroke:#020203;stroke-width:27;stroke-linejoin:round;stroke-miterlimit:10;}
	.st2{fill:none;stroke:#020203;stroke-width:26;stroke-linecap:round;stroke-linejoin:round;stroke-miterlimit:10;}
	.st3{fill:none;stroke:#020203;stroke-width:29;stroke-linecap:round;stroke-linejoin:round;stroke-miterlimit:10;}
</style>
<g>
	<polygon class="st0" points="409,416.3 317.9,507.5 278.8,468.4 239.7,507.5 317.9,585.6 448.1,455.4 	"/>
	<polyline class="st1" points="604.3,585.6 604.3,702.7 174.6,702.7 174.6,103.8 604.3,103.8 604.3,312.2 	"/>
	<line class="st2" x1="265.8" y1="221" x2="500.1" y2="221"/>
	<line class="st2" x1="265.8" y1="273.1" x2="500.1" y2="273.1"/>
	<line class="st2" x1="265.8" y1="325.2" x2="409" y2="325.2"/>
	<path class="st2" d="M406.9,646.9L406.9,646.9L406.9,646.9c10.7-46.5,34.3-89,68-122.7l207.4-207.4c12.1-12.1,31.7-17.1,43.8-5
		l10.9,10.9c12.1,12.1,12.1,31.7,0,43.8L529.6,578.8C495.9,612.6,453.4,636.1,406.9,646.9z"/>
	<path class="st2" d="M649.5,349.6l65.6,60.6c12.1,12.1,12.1,31.7,0,43.8l-65.6,70.6"/>
	<line class="st3" x1="528" y1="471" x2="582.7" y2="525.7"/>
</g>
</svg>
