<?xml version="1.0" encoding="UTF-8"?><svg id="uuid-d1902677-e6b1-421c-ac89-6e8113f19eb3" xmlns="http://www.w3.org/2000/svg" xmlns:xlink="http://www.w3.org/1999/xlink" viewBox="0 0 100 100"><defs><clipPath id="uuid-3a4bbca7-340a-477b-b115-8f3cf46bff76"><rect width="100" height="100" style="fill:none;"/></clipPath></defs><g style="clip-path:url(#uuid-3a4bbca7-340a-477b-b115-8f3cf46bff76); fill:none;"><path d="m100,79.409V20.588C100,9.214,90.786,0,79.411,0H20.589C9.22,0,0,9.214,0,20.588v58.821C0,90.778,9.22,100,20.589,100h58.822c11.375,0,20.589-9.222,20.589-20.591" style="fill:#1e4b98;"/></g><path d="m79.597,66.912c-.252,1.975-.739,3.754-1.615,5.307-.805,1.427-1.939,2.663-3.519,3.685-8.618,5.572-19.045.479-26.898-4.105-3.708-2.165-6.946-4.888-9.885-7.951-3.089-2.911-5.842-6.124-8.04-9.813-4.655-7.812-9.842-18.193-4.348-26.86,1.008-1.59,2.234-2.734,3.653-3.552,1.545-.89,3.32-1.394,5.293-1.663,1.278-.174,2.087.285,2.705,1.403,1.734,3.138,3.542,6.236,5.298,9.362.415.739.785,1.512,1.089,2.302.387,1.008.135,1.663-.664,2.391-1.785,1.628-3.566,3.26-5.296,4.947-.326.318-.663.658-.788,1.095-.176.612.102,1.254.383,1.826,2.045,4.159,4.599,8.008,7.919,11.261h0c.005.005.01.01.015.015.005.005.01.01.015.015h0c3.283,3.291,7.154,5.811,11.332,7.818.574.276,1.219.547,1.829.366.436-.13.773-.469,1.088-.798,1.671-1.745,3.287-3.541,4.899-5.34.721-.805,1.374-1.063,2.385-.685.793.297,1.569.66,2.312,1.068,3.143,1.727,6.256,3.507,9.41,5.213,1.124.608,1.591,1.413,1.428,2.692Z" style="fill:#fff;"/></svg>