<?xml version="1.0" encoding="UTF-8"?><svg id="Calque_1" xmlns="http://www.w3.org/2000/svg" xmlns:xlink="http://www.w3.org/1999/xlink" viewBox="0 0 100 100"><defs><style>.cls-1{clip-path:url(#clippath);}.cls-2{fill:none;}.cls-2,.cls-3{stroke-width:0px;}.cls-3{fill:#1f1f1f;}</style><clipPath id="clippath"><rect class="cls-2" x=".02" width="100" height="100"/></clipPath></defs><g class="cls-1"><path class="cls-3" d="m54.91,39.2v4.37h15.89l-4.27,12.37h-11.62v30.51h-14.03v-30.51h-11.64v-12.37h11.64v-4.52c0-16.72,6.97-25.5,21.75-25.5,4.53,0,5.66.72,8.15,1.32v12.24c-2.79-.5-3.57-.74-6.45-.74-3.44,0-5.25.96-6.92,2.87-1.67,1.92-2.5,5.23-2.5,9.96m45.1,40.21V20.59C100.02,9.21,90.8,0,79.43,0H20.6C9.24,0,.02,9.21.02,20.59v58.82c0,11.37,9.22,20.59,20.59,20.59h58.82c11.37,0,20.59-9.22,20.59-20.59"/></g></svg>