<?xml version="1.0" encoding="UTF-8"?><svg id="Calque_1" xmlns="http://www.w3.org/2000/svg" xmlns:xlink="http://www.w3.org/1999/xlink" viewBox="0 0 100 100"><defs><style>.cls-1{clip-path:url(#clippath);}.cls-2{fill:none;}.cls-2,.cls-3{stroke-width:0px;}.cls-3{fill:#1f1f1f;}</style><clipPath id="clippath"><rect class="cls-2" x=".04" y="0" width="100" height="100"/></clipPath></defs><g class="cls-1"><path class="cls-3" d="m63.28,50c0-7.3-5.94-13.24-13.24-13.24s-13.24,5.94-13.24,13.24,5.94,13.24,13.24,13.24,13.24-5.94,13.24-13.24m12.17-24.95c0,1.88-1.53,3.4-3.4,3.4s-3.4-1.52-3.4-3.4,1.52-3.4,3.4-3.4,3.4,1.52,3.4,3.4m-6.97,24.95c0,4.93-1.92,9.56-5.4,13.04-3.48,3.49-8.11,5.41-13.04,5.41s-9.56-1.92-13.04-5.41c-3.48-3.48-5.4-8.11-5.4-13.04s1.92-9.56,5.4-13.04c3.48-3.48,8.11-5.4,13.04-5.4s9.56,1.92,13.04,5.4c3.48,3.48,5.4,8.12,5.4,13.04m11.63,23.01V26.99c0-3.89-3.17-7.06-7.06-7.06H27.03c-3.89,0-7.06,3.16-7.06,7.06v46.01c0,3.89,3.17,7.06,7.06,7.06h46.01c3.89,0,7.06-3.17,7.06-7.06m5.2,0c0,6.76-5.5,12.26-12.26,12.26H27.03c-6.76,0-12.26-5.5-12.26-12.26V26.99c0-6.76,5.5-12.26,12.26-12.26h46.01c6.76,0,12.26,5.5,12.26,12.26v46.01Zm14.73,6.4V20.59C100.04,9.21,90.82,0,79.45,0H20.63C9.26,0,.04,9.21.04,20.59v58.82c0,11.37,9.22,20.59,20.59,20.59h58.82c11.37,0,20.59-9.22,20.59-20.59"/></g></svg>