<?xml version="1.0" encoding="UTF-8"?><svg id="Calque_1" xmlns="http://www.w3.org/2000/svg" xmlns:xlink="http://www.w3.org/1999/xlink" viewBox="0 0 100 100"><defs><style>.cls-1{clip-path:url(#clippath);}.cls-2{fill:none;}.cls-2,.cls-3{stroke-width:0px;}.cls-3{fill: #1e4b98;}</style><clipPath id="clippath"><rect class="cls-2" x=".12" y="0" width="100" height="100"/></clipPath></defs><g class="cls-1"><path class="cls-3" d="m78.03,75.26h-11.67v-21.69c0-.56-.16-6.39-6.6-6.39-2.19,0-4.12.97-5.19,2.91-1.26,2.29-1.07,4.99-1.07,7.52v17.49h-11.67v-37.21h11.16v4.98s.17-.28.51-.73c1.27-1.65,4.97-5.53,11.5-5.26.46.02.92.05,1.36.1,7.45.8,11.67,5.71,11.67,14.02v24.27ZM35.74,26.21c0,3.74-3.03,6.77-6.77,6.77s-6.77-3.03-6.77-6.77,3.03-6.77,6.77-6.77,6.77,3.03,6.77,6.77m-12.6,11.59h11.67v37.21h-11.67v-37.21Zm76.98,41.62V20.59C100.12,9.22,90.91,0,79.53,0H20.71C9.34,0,.12,9.22.12,20.59v58.82c0,11.37,9.22,20.59,20.59,20.59h58.82c11.38,0,20.59-9.22,20.59-20.59"/></g></svg>