<?xml version="1.0" encoding="UTF-8"?><svg id="Calque_1" xmlns="http://www.w3.org/2000/svg" viewBox="0 0 429.63 102.26"><defs><style>.cls-1{fill:#1f1f1f;stroke-width:0px;}</style></defs><path class="cls-1" d="m142.67,1.84h4.31l-12.78,30.37h-.98L120.19,1.84h4.36l9.09,21.23,9.03-21.23Z"/><path class="cls-1" d="m151.79,3.79c.65,0,1.2.22,1.67.67s.69,1,.69,1.65-.23,1.18-.69,1.64c-.46.46-1.02.69-1.67.69-.61,0-1.14-.23-1.6-.7-.46-.47-.69-1.01-.69-1.63s.23-1.14.69-1.61c.46-.47,1-.7,1.6-.7Zm-1.95,8.38h3.94v19.91h-3.94V12.17Z"/><path class="cls-1" d="m159.56,1.84h3.94v30.24h-3.94V1.84Z"/><path class="cls-1" d="m169.28,1.84h3.94v30.24h-3.94V1.84Z"/><path class="cls-1" d="m195.88,22.47h-14c.1,1.9.74,3.42,1.92,4.55,1.18,1.13,2.7,1.69,4.56,1.69,2.6,0,4.99-.81,7.19-2.42v3.85c-1.21.81-2.41,1.39-3.6,1.73-1.19.35-2.59.52-4.19.52-2.19,0-3.97-.46-5.33-1.36-1.36-.91-2.44-2.13-3.26-3.67-.82-1.54-1.22-3.32-1.22-5.33,0-3.03.86-5.5,2.58-7.39,1.72-1.9,3.95-2.85,6.69-2.85s4.75.92,6.32,2.77c1.57,1.85,2.36,4.32,2.36,7.42v.5Zm-13.92-2.36h10.02c-.1-1.57-.57-2.78-1.41-3.64-.84-.85-1.96-1.28-3.38-1.28s-2.57.43-3.47,1.28c-.9.85-1.49,2.06-1.77,3.64Z"/><path class="cls-1" d="m225.75,1.84h3.96v30.24h-8.42c-2.94,0-5.29-.93-7.05-2.79-1.75-1.86-2.63-4.36-2.63-7.49,0-2.93.92-5.34,2.76-7.23,1.84-1.89,4.19-2.84,7.05-2.84,1.33,0,2.77.28,4.33.85V1.84Zm0,26.86v-12.62c-1.23-.62-2.47-.93-3.72-.93-1.96,0-3.52.64-4.69,1.93-1.16,1.29-1.74,3.02-1.74,5.2,0,2.05.51,3.63,1.51,4.74.61.66,1.25,1.11,1.93,1.34.68.23,1.9.35,3.66.35h3.05Z"/><path class="cls-1" d="m252.03,22.47h-14c.1,1.9.74,3.42,1.92,4.55,1.18,1.13,2.7,1.69,4.56,1.69,2.6,0,4.99-.81,7.19-2.42v3.85c-1.21.81-2.41,1.39-3.6,1.73-1.19.35-2.59.52-4.19.52-2.19,0-3.97-.46-5.33-1.36-1.36-.91-2.44-2.13-3.26-3.67-.82-1.54-1.22-3.32-1.22-5.33,0-3.03.86-5.5,2.58-7.39,1.72-1.9,3.95-2.85,6.69-2.85s4.75.92,6.32,2.77c1.57,1.85,2.36,4.32,2.36,7.42v.5Zm-13.92-2.36h10.02c-.1-1.57-.57-2.78-1.41-3.64-.84-.85-1.96-1.28-3.38-1.28s-2.57.43-3.47,1.28c-.9.85-1.49,2.06-1.77,3.64Z"/><path class="cls-1" d="m122.16,53.35h15.98c9.69,0,13.91,6.16,13.91,11.97,0,4.22-2.21,7.61-6.37,9.62,5.26,2.42,7.96,6.37,7.96,11.76,0,7.54-5.6,13.91-15.36,13.91h-16.12v-47.26Zm13.01,19.1c4.08,0,6.16-1.87,6.16-5.74s-1.94-5.67-6.16-5.67h-2.28v11.41h2.28Zm1.18,20.48c4.64,0,6.57-2.35,6.57-6.37,0-3.32-1.59-6.43-5.88-6.43h-4.15v12.8h3.46Z"/><path class="cls-1" d="m177.33,52.73c8.79,0,18.61,6.57,18.61,24.28s-10.59,24.21-18.61,24.21c-9.13,0-18.61-6.99-18.61-24.7,0-16.05,9.41-23.8,18.61-23.8Zm0,39.23c4.98,0,7.68-3.67,7.68-15.01,0-8.16-1.31-14.94-7.68-14.94-5.81,0-7.68,5.67-7.68,14.94s1.8,15.01,7.68,15.01Z"/><path class="cls-1" d="m202.52,53.35h15.43c9.69,0,15.22,5.47,15.22,13.21,0,5.33-2.35,8.72-7.96,11.07,4.22,2.35,5.88,12.94,9.89,22.97h-11.14l-2.56-8.86c-2.98-10.24-3.67-11.07-8.16-11.07v19.93h-10.73v-47.26Zm14.11,19.16c3.6,0,5.81-1.94,5.81-5.67s-2.01-5.33-5.95-5.33h-3.25v11h3.39Z"/><path class="cls-1" d="m240.7,53.35h13.98c14.8,0,20.41,11.76,20.41,23.25,0,10.86-5.26,24.01-19.86,24.01h-14.53v-47.26Zm13.28,39.3c7.75,0,10.17-6.02,10.17-15.5,0-8.92-2.21-15.84-9.62-15.84h-3.11v31.34h2.56Z"/><path class="cls-1" d="m281.36,53.35h27.54v8.16h-16.81v11h15.64v8.16h-15.64v11.76h17.44v8.16h-28.16v-47.26Z"/><path class="cls-1" d="m326.23,53.07h11.14l12.38,47.53h-10.38l-2.21-9.82h-10.66l-2.28,9.82h-10.38l12.39-47.53Zm9.34,30.03l-3.67-17.16h-.14l-3.73,17.16h7.54Z"/><path class="cls-1" d="m363.54,53.35v32.52c0,3.74,2.01,6.43,5.81,6.43,4.15,0,5.81-2.7,5.81-6.99v-31.96h10.72v31.07c0,10.38-5.33,16.81-16.54,16.81-9.82,0-16.53-4.91-16.53-16.67v-31.2h10.72Z"/><path class="cls-1" d="m401.9,75.56l-12.45-22.21h11.76l6.71,13.01,6.78-13.01h11.69l-12.45,22.21,13.84,25.05h-11.69l-8.16-15.5-8.16,15.5h-11.69l13.84-25.05Z"/><path class="cls-1" d="m38.41,45.89c.45,4.67,1.87,9.33,4.37,13.66,2.26,3.9,5.2,7.16,8.56,9.75,3.36-2.59,6.3-5.85,8.56-9.75,2.5-4.31,3.92-8.95,4.37-13.61-4.02-1.68-8.43-2.62-13.06-2.62-4.53.01-8.85.94-12.79,2.57Z"/><path class="cls-1" d="m1.72,1.7v99.07h99.07V1.7H1.72Zm83.21,65.96c-.05.26-.23.47-.5.52-.34.06-.66-.16-.74-.49h0c-1.75-6.07-5.17-11.44-9.72-15.58-.51,4.48-1.92,8.93-4.33,13.08-2.18,3.76-4.98,6.92-8.18,9.47,5.98,1.96,12.48,2.25,18.74.68h0c.33-.09.68.08.79.4.09.26,0,.53-.2.7-.53.35-1.07.69-1.62,1.01-8.79,5.09-18.91,5.77-27.82,2.73-8.91,3.04-19.03,2.36-27.82-2.73-.56-.32-1.09-.66-1.62-1.01-.2-.17-.29-.44-.2-.7.12-.32.47-.49.79-.39h0c6.27,1.57,12.77,1.27,18.74-.69-3.2-2.55-6-5.72-8.18-9.47-2.43-4.19-3.84-8.68-4.34-13.21-4.65,4.19-8.12,9.65-9.88,15.84h-.01c-.07.25-.28.44-.55.47-.34.03-.63-.2-.69-.53-.04-.63-.06-1.25-.06-1.89-.02-10.39,4.66-19.69,12.03-25.89,2.16-8.5,7.6-16.16,15.78-20.9.55-.32,1.1-.61,1.66-.89.31-.11.66.02.8.33.11.25.05.53-.13.71h0c-4.09,4.26-6.91,9.45-8.34,15.01,3.69-1.39,7.68-2.16,11.85-2.17,4.29,0,8.39.8,12.17,2.26-1.42-5.59-4.25-10.81-8.36-15.08h0c-.18-.19-.24-.47-.13-.72.14-.31.49-.44.8-.33.56.28,1.11.58,1.66.89,8.25,4.78,13.71,12.52,15.83,21.1,7.21,6.17,11.79,15.33,11.8,25.56,0,.64-.02,1.28-.05,1.91Z"/></svg>