<?xml version="1.0" encoding="UTF-8"?><svg id="uuid-54db8d50-1646-4700-a283-8eb3fafd859e" xmlns="http://www.w3.org/2000/svg" viewBox="0 0 800 800"><path d="m402.3,116c100.8,0,182.5,81.7,182.5,182.5,0,49.3-19.5,94-51.2,126.8-79.6,89.2-101.5,200.2-131.3,275.2-29.7-93-58.1-184.7-131.3-275.2-31.7-32.8-51.2-77.5-51.2-126.8,0-100.8,81.7-182.5,182.5-182.5h0Zm0,49c70.6,0,127.9,57.3,127.9,127.9s-57.3,127.9-127.9,127.9-127.9-57.3-127.9-127.9c0-70.6,54.6-127.9,127.9-127.9h0Z" style="fill:#fff; fill-rule:evenodd; stroke:#fff; stroke-miterlimit:10; stroke-width:24px;"/></svg>