<?xml version="1.0" encoding="UTF-8"?><svg id="Calque_1" xmlns="http://www.w3.org/2000/svg" xmlns:xlink="http://www.w3.org/1999/xlink" viewBox="0 0 100 100"><defs><style>.cls-1{clip-path:url(#clippath);}.cls-2{fill:none;}.cls-2,.cls-3{stroke-width:0px;}.cls-3{fill:#1f1f1f;}</style><clipPath id="clippath"><rect class="cls-2" x="0" y=".31" width="100" height="100"/></clipPath></defs><g class="cls-1"><path class="cls-3" d="m40.32,61.49l19.36-11.17-19.36-11.18v22.35Zm46.96-.31c0,6.71-5.44,12.16-12.16,12.16H24.87c-6.71,0-12.16-5.44-12.16-12.16v-21.74c0-6.71,5.44-12.16,12.16-12.16h50.26c6.71,0,12.16,5.44,12.16,12.16v21.74Zm12.71,18.54V20.9c0-11.37-9.21-20.59-20.59-20.59H20.59C9.22.31,0,9.53,0,20.9v58.82C0,91.09,9.22,100.31,20.59,100.31h58.82c11.37,0,20.59-9.22,20.59-20.59"/></g></svg>